<svg preserveAspectRatio="none" width="100%" height="100%" overflow="visible" style="display: block;" viewBox="0 0 8.47204 8.47204" fill="none" xmlns="http://www.w3.org/2000/svg">
<path id="Shape" fill-rule="evenodd" clip-rule="evenodd" d="M4.23602 8.47204C6.57551 8.47204 8.47204 6.57551 8.47204 4.23602C8.47204 1.89653 6.57551 0 4.23602 0C1.89653 0 0 1.89653 0 4.23602C0 6.57551 1.89653 8.47204 4.23602 8.47204ZM4.65962 2.11801C4.65962 1.88406 4.46997 1.69441 4.23602 1.69441C4.00207 1.69441 3.81242 1.88406 3.81242 2.11801V4.23602C3.81242 4.46997 4.00207 4.65962 4.23602 4.65962H5.50683C5.74078 4.65962 5.93043 4.46997 5.93043 4.23602C5.93043 4.00207 5.74078 3.81242 5.50683 3.81242H4.65962V2.11801Z" fill="var(--fill-0, white)"/>
</svg>
