<svg preserveAspectRatio="none" width="100%" height="100%" overflow="visible" style="display: block;" viewBox="0 0 111.329 110.798" fill="none" xmlns="http://www.w3.org/2000/svg">
<g id="Group 6">
<path id="Vector" d="M55.6641 0.5C86.1327 0.5 110.828 25.0817 110.828 55.3994C110.828 85.7171 86.1326 110.299 55.6641 110.299C25.1956 110.299 0.50012 85.717 0.5 55.3994C0.5 25.0817 25.1955 0.500111 55.6641 0.5Z" fill="url(#paint0_linear_214_31757)" stroke="url(#paint1_linear_214_31757)"/>
<g id="Union" filter="url(#filter0_d_214_31757)">
<path d="M49.2171 19.7404C50.6234 17.6735 59.4744 23.3783 60.1362 25.7761C60.724 27.595 59.5482 28.5045 59.2169 30.0754C58.9949 31.128 59.2169 39.7195 59.2169 39.7195C59.2169 39.7195 68.8931 37.7958 75.1253 36.743C80.9984 35.7508 85.9526 42.1999 86.458 44.763C87.1486 48.2654 78.5939 52.58 73.2698 54.7844C73.9672 55.0154 74.8243 56.1729 75.4335 57.9387C76.7267 61.6873 69.4271 61.3943 59.6195 62.2329C59.6195 78.3312 58.6896 89.618 58.4984 91.1467C58.1675 93.7924 56.0995 96.6035 55.1069 93.8751C54.2653 91.5618 53.4525 76.6776 53.4525 62.9527C52.5577 63.0777 51.8584 63.154 50.9482 63.313C37.2168 65.7107 39.9806 62.386 40.6909 62.0727C43.1951 60.9684 52.9562 58.4879 52.9562 58.4879L52.7907 45.2591C52.7907 45.2591 45.2976 47.1071 43.917 47.4383C40.6082 48.232 38.5628 46.9954 39.3073 46.0032C39.8434 45.2888 40.4425 45.0993 41.2926 44.763C45.2631 43.1921 52.3604 41.2904 52.3604 41.2904C52.3604 41.2904 52.3604 38.1486 52.3604 36.6899C52.5784 25.7761 47.8108 21.8074 49.2171 19.7404ZM25.2134 43.8007C26.8165 42.0346 37.9513 46.6942 37.5384 48.2654C36.865 50.8282 37.7152 59.4273 37.5384 60.9155C37.3714 62.3211 38.6108 63.1479 38.4469 64.2228C38.3341 64.9629 35.6343 66.1244 34.0642 64.9669C32.0773 63.5021 29.0773 52.0687 28.6873 50.2498C28.4392 49.0923 25.957 46.7772 25.2952 46.1158C24.7657 45.5866 24.6255 44.3892 25.2134 43.8007ZM73.2 42.5602C71.682 41.5221 65.7979 42.481 59.6195 43.7708C59.7382 48.4911 59.6195 56.9997 59.6195 56.9997C59.6195 56.9997 66.5223 55.7766 67.2442 55.6237C69.7484 55.0931 76.3434 44.7099 73.2 42.5602Z" fill="url(#paint2_linear_214_31757)"/>
<path d="M49.2171 19.7404C50.6234 17.6735 59.4744 23.3783 60.1362 25.7761C60.724 27.595 59.5482 28.5045 59.2169 30.0754C58.9949 31.128 59.2169 39.7195 59.2169 39.7195C59.2169 39.7195 68.8931 37.7958 75.1253 36.743C80.9984 35.7508 85.9526 42.1999 86.458 44.763C87.1486 48.2654 78.5939 52.58 73.2698 54.7844C73.9672 55.0154 74.8243 56.1729 75.4335 57.9387C76.7267 61.6873 69.4271 61.3943 59.6195 62.2329C59.6195 78.3312 58.6896 89.618 58.4984 91.1467C58.1675 93.7924 56.0995 96.6035 55.1069 93.8751C54.2653 91.5618 53.4525 76.6776 53.4525 62.9527C52.5577 63.0777 51.8584 63.154 50.9482 63.313C37.2168 65.7107 39.9806 62.386 40.6909 62.0727C43.1951 60.9684 52.9562 58.4879 52.9562 58.4879L52.7907 45.2591C52.7907 45.2591 45.2976 47.1071 43.917 47.4383C40.6082 48.232 38.5628 46.9954 39.3073 46.0032C39.8434 45.2888 40.4425 45.0993 41.2926 44.763C45.2631 43.1921 52.3604 41.2904 52.3604 41.2904C52.3604 41.2904 52.3604 38.1486 52.3604 36.6899C52.5784 25.7761 47.8108 21.8074 49.2171 19.7404ZM25.2134 43.8007C26.8165 42.0346 37.9513 46.6942 37.5384 48.2654C36.865 50.8282 37.7152 59.4273 37.5384 60.9155C37.3714 62.3211 38.6108 63.1479 38.4469 64.2228C38.3341 64.9629 35.6343 66.1244 34.0642 64.9669C32.0773 63.5021 29.0773 52.0687 28.6873 50.2498C28.4392 49.0923 25.957 46.7772 25.2952 46.1158C24.7657 45.5866 24.6255 44.3892 25.2134 43.8007ZM73.2 42.5602C71.682 41.5221 65.7979 42.481 59.6195 43.7708C59.7382 48.4911 59.6195 56.9997 59.6195 56.9997C59.6195 56.9997 66.5223 55.7766 67.2442 55.6237C69.7484 55.0931 76.3434 44.7099 73.2 42.5602Z" stroke="var(--stroke-0, black)" stroke-width="0.546663"/>
</g>
</g>
<defs>
<filter id="filter0_d_214_31757" x="23.1001" y="19.0241" width="65.1285" height="79.1555" filterUnits="userSpaceOnUse" color-interpolation-filters="sRGB">
<feFlood flood-opacity="0" result="BackgroundImageFix"/>
<feColorMatrix in="SourceAlpha" type="matrix" values="0 0 0 0 0 0 0 0 0 0 0 0 0 0 0 0 0 0 127 0" result="hardAlpha"/>
<feOffset dy="1.45777"/>
<feGaussianBlur stdDeviation="0.728884"/>
<feComposite in2="hardAlpha" operator="out"/>
<feColorMatrix type="matrix" values="0 0 0 0 0.883207 0 0 0 0 0.615639 0 0 0 0 0.125097 0 0 0 1 0"/>
<feBlend mode="normal" in2="BackgroundImageFix" result="effect1_dropShadow_214_31757"/>
<feBlend mode="normal" in="SourceGraphic" in2="effect1_dropShadow_214_31757" result="shape"/>
</filter>
<linearGradient id="paint0_linear_214_31757" x1="55.6643" y1="0" x2="55.6643" y2="110.798" gradientUnits="userSpaceOnUse">
<stop stop-color="#FFA500"/>
<stop offset="1" stop-color="#FFC967"/>
</linearGradient>
<linearGradient id="paint1_linear_214_31757" x1="55.6643" y1="0" x2="55.6643" y2="110.798" gradientUnits="userSpaceOnUse">
<stop stop-color="#FFC250"/>
<stop offset="1" stop-color="#FFBC42"/>
</linearGradient>
<linearGradient id="paint2_linear_214_31757" x1="55.6643" y1="19.2975" x2="55.6643" y2="94.9904" gradientUnits="userSpaceOnUse">
<stop/>
<stop offset="1" stop-color="#666666"/>
</linearGradient>
</defs>
</svg>
