<svg preserveAspectRatio="none" width="100%" height="100%" overflow="visible" style="display: block;" viewBox="0 0 418.632 62.7282" fill="none" xmlns="http://www.w3.org/2000/svg">
<g id="Group">
<path id="Vector" d="M38.3797 35.4446L43.959 41.0613C44.0314 41.1333 44.0394 41.2534 43.9751 41.3334C41.9251 43.8937 39.2399 45.974 35.9358 47.5582C32.5673 49.1744 28.8853 49.9905 24.8817 49.9905C21.2318 49.9905 17.8875 49.3904 14.8486 48.1823C11.8098 46.9821 9.1809 45.2699 6.96204 43.0616C4.74319 40.8533 3.02278 38.261 1.81688 35.2766C0.602945 32.3002 0 29.0198 0 25.4273C0 21.8348 0.627064 18.6744 1.8812 15.674C3.13533 12.6736 4.87986 10.0733 7.13088 7.85702C9.37385 5.64873 12.0268 3.93651 15.0818 2.73636C18.1367 1.5362 21.473 0.928121 25.0827 0.928121C29.0863 0.928121 32.7361 1.73623 36.0403 3.36044C39.2801 4.95264 41.9251 7.02491 43.9751 9.58525C44.0394 9.66526 44.0314 9.78527 43.959 9.85728L38.3797 15.474C38.2913 15.562 38.1466 15.546 38.0742 15.45C36.6432 13.4417 34.8263 11.8255 32.6316 10.6174C30.3645 9.36922 27.8482 8.74514 25.0746 8.74514C22.084 8.74514 19.4069 9.46523 17.0594 10.9134C14.7039 12.3616 12.8468 14.3299 11.4802 16.8262C10.1135 19.3225 9.43816 22.1869 9.43816 25.4273C9.43816 28.6677 10.1215 31.5481 11.4802 34.0604C12.8468 36.5808 14.7039 38.557 17.0594 40.0052C19.415 41.4534 22.084 42.1735 25.0746 42.1735C27.8482 42.1735 30.3645 41.5494 32.6316 40.3012C34.8263 39.0931 36.6432 37.4849 38.0742 35.4686C38.1466 35.3646 38.2913 35.3566 38.3797 35.4446Z" fill="url(#paint0_linear_214_31761)"/>
<path id="Vector_2" d="M66.5254 49.9905C62.9157 49.9905 59.7322 49.2384 56.9586 47.7262C54.185 46.214 52.0305 44.1337 50.495 41.4854C48.9514 38.837 48.1877 35.8287 48.1877 32.4522C48.1877 29.0758 48.9595 25.9474 50.495 23.323C52.0305 20.6987 54.1931 18.6264 56.9586 17.1142C59.7322 15.602 62.9157 14.8499 66.5254 14.8499C70.135 14.8499 73.3186 15.602 76.0922 17.1142C78.8657 18.6264 81.0203 20.6907 82.5558 23.323C84.0913 25.9474 84.8631 28.9718 84.8631 32.3882C84.8631 35.8047 84.0913 38.837 82.5558 41.4854C81.0123 44.1337 78.8577 46.214 76.0922 47.7262C73.3186 49.2384 70.127 49.9905 66.5254 49.9905ZM66.5254 42.7656C68.3744 42.7656 69.9984 42.3255 71.4053 41.4534C72.8121 40.5813 73.9135 39.3651 74.7014 37.8049C75.4973 36.2527 75.8912 34.4685 75.8912 32.4522C75.8912 30.436 75.4973 28.5877 74.7014 27.0355C73.9135 25.4833 72.8121 24.2672 71.4053 23.387C69.9984 22.5149 68.3664 22.0749 66.5254 22.0749C64.6844 22.0749 63.0524 22.5149 61.6455 23.387C60.2386 24.2672 59.1373 25.4753 58.3494 27.0355C57.5615 28.5877 57.1596 30.396 57.1596 32.4522C57.1596 34.5085 57.5535 36.2527 58.3494 37.8049C59.1373 39.3571 60.2386 40.5733 61.6455 41.4534C63.0524 42.3335 64.6844 42.7656 66.5254 42.7656Z" fill="url(#paint1_linear_214_31761)"/>
<path id="Vector_3" d="M95.6921 10.1853C94.2369 10.1853 92.9989 9.68926 91.9618 8.70513C90.9247 7.721 90.4102 6.52885 90.4102 5.12867C90.4102 3.64047 90.9247 2.41632 91.9618 1.44819C92.9989 0.488064 94.2369 0 95.6921 0C97.1472 0 98.4415 0.496066 99.4545 1.48019C100.403 2.40031 100.91 3.52846 100.966 4.85663C101.03 6.31282 100.451 7.76101 99.3982 8.76114C98.3933 9.70526 97.1633 10.1853 95.6921 10.1853ZM99.2454 48.9344H92.1387C91.6965 48.9344 91.3347 48.5743 91.3347 48.1343V16.6982C91.3347 16.2581 91.6965 15.8981 92.1387 15.8981H99.2454C99.6876 15.8981 100.049 16.2581 100.049 16.6982V48.1343C100.049 48.5743 99.6876 48.9344 99.2454 48.9344Z" fill="url(#paint2_linear_214_31761)"/>
<path id="Vector_4" d="M139.297 48.9344H132.199C131.756 48.9344 131.395 48.5743 131.395 48.1343V29.8279C131.395 27.2435 130.8 25.3073 129.61 24.0191C128.42 22.731 126.812 22.0829 124.794 22.0829C123.388 22.0829 122.045 22.4589 120.767 23.203C119.488 23.9471 118.459 25.1073 117.664 26.6835C116.876 28.2597 116.474 30.3399 116.474 32.9243V48.1503C116.474 48.5903 116.112 48.9504 115.67 48.9504H108.571C108.129 48.9504 107.767 48.5903 107.767 48.1503V16.7222C107.767 16.2821 108.129 15.9221 108.571 15.9221H115.605C116.048 15.9221 116.409 16.2821 116.409 16.7222V26.1634H115.356C115.75 23.227 116.578 20.9387 117.832 19.2985C119.086 17.6583 120.558 16.5061 122.254 15.8501C123.95 15.194 125.631 14.8659 127.303 14.8659C131.266 14.8659 134.385 16.0741 136.677 18.4744C138.96 20.8827 140.109 24.3872 140.109 28.9798V48.1423C140.109 48.5823 139.748 48.9424 139.305 48.9424L139.297 48.9344Z" fill="url(#paint3_linear_214_31761)"/>
<path id="Vector_5" d="M176.608 43.8777H171.029C170.715 43.8777 170.434 43.7017 170.297 43.4216L152.651 6.72087C152.393 6.19281 152.779 5.57672 153.366 5.56872L155.907 5.52872C156.357 5.52872 156.727 5.88076 156.727 6.32882V48.1183C156.727 48.5583 156.365 48.9184 155.923 48.9184H148.961C148.518 48.9184 148.157 48.5583 148.157 48.1183V2.76836C148.157 2.3283 148.518 1.96826 148.961 1.96826H157.941C158.254 1.96826 158.535 2.14428 158.672 2.42432L175.129 36.8048C175.386 37.3409 174.992 37.9569 174.397 37.9569H173.328C172.733 37.9569 172.347 37.3409 172.596 36.8048L189.053 2.42432C189.189 2.14428 189.471 1.96826 189.784 1.96826H198.628C199.07 1.96826 199.431 2.3283 199.431 2.76836V48.1183C199.431 48.5583 199.07 48.9184 198.628 48.9184H191.537C191.095 48.9184 190.733 48.5583 190.733 48.1183V6.32882C190.733 5.88076 191.103 5.52072 191.553 5.52872L194.286 5.56872C194.873 5.57672 195.259 6.19281 195.002 6.72087L177.355 43.4216C177.219 43.7017 176.937 43.8777 176.624 43.8777H176.608Z" fill="url(#paint4_linear_214_31761)"/>
<path id="Vector_6" d="M219.353 49.9905C216.804 49.9905 214.561 49.5344 212.624 48.6143C210.687 47.6942 209.183 46.422 208.106 44.8058C207.029 43.1896 206.49 41.3014 206.49 39.1571C206.49 36.8848 207.149 34.9405 208.468 33.3483C209.786 31.7481 211.667 30.516 214.111 29.6359C216.555 28.7637 219.377 28.3237 222.593 28.3237H230.294C230.745 28.3237 231.106 28.6837 231.106 29.1318V33.1643C231.106 33.6124 230.745 33.9724 230.294 33.9724H223.252C220.872 33.9724 218.959 34.3885 217.512 35.2206C216.057 36.0527 215.333 37.2528 215.333 38.829C215.333 40.2772 215.896 41.4134 217.013 42.2455C218.139 43.0776 219.594 43.4937 221.403 43.4937C223.212 43.4937 224.683 43.1336 226.09 42.4135C227.497 41.6934 228.638 40.6933 229.523 39.4291C230.206 38.445 230.664 37.3489 230.897 36.1487C230.994 35.6286 231.557 35.3406 232.039 35.5646L233.076 36.0527C233.365 36.1887 233.558 36.4847 233.55 36.8048C233.478 39.3011 232.883 41.5094 231.774 43.4296C230.584 45.4859 228.928 47.0941 226.789 48.2543C224.659 49.4144 222.183 49.9985 219.369 49.9985L219.353 49.9905ZM237.739 48.9344H231.444C230.994 48.9344 230.632 48.5743 230.632 48.1263V42.4455C230.632 42.3495 230.616 42.2535 230.584 42.1655L230.294 41.3894C230.262 41.3014 230.246 41.2054 230.246 41.1093V28.8438C230.246 26.5234 229.499 24.7312 228.003 23.459C226.508 22.1869 224.458 21.5548 221.869 21.5548C219.98 21.5548 218.203 21.9148 216.555 22.6349C215.172 23.243 213.942 24.0511 212.849 25.0753C212.503 25.3953 211.965 25.3873 211.659 25.0353L208.186 21.0267C207.905 20.6987 207.921 20.2026 208.243 19.9066C209.891 18.4104 211.836 17.2182 214.087 16.3381C216.595 15.354 219.321 14.8579 222.271 14.8579C225.479 14.8579 228.317 15.402 230.785 16.4981C233.245 17.5943 235.158 19.1545 236.525 21.1948C237.892 23.227 238.567 25.7153 238.567 28.6517V48.1343C238.567 48.5823 238.205 48.9424 237.755 48.9424L237.739 48.9344Z" fill="url(#paint5_linear_214_31761)"/>
<path id="Vector_7" d="M277.276 48.9344H270.169C269.727 48.9344 269.366 48.5743 269.366 48.1343V29.8199C269.366 27.2355 268.771 25.2993 267.581 24.0111C266.391 22.723 264.783 22.0749 262.765 22.0749C261.358 22.0749 260.016 22.4509 258.738 23.195C257.459 23.9391 256.43 25.0993 255.634 26.6755C254.847 28.2517 254.445 30.3319 254.445 32.9163V48.1423C254.445 48.5823 254.083 48.9424 253.641 48.9424H246.534C246.092 48.9424 245.73 48.5823 245.73 48.1423V2.44832C245.73 2.00826 246.092 1.64822 246.534 1.64822H253.641C254.083 1.64822 254.445 2.00826 254.445 2.44832V26.1474H253.319C253.713 23.211 254.541 20.9227 255.795 19.2825C257.049 17.6423 258.52 16.4901 260.217 15.8341C261.913 15.178 263.593 14.8499 265.265 14.8499C269.229 14.8499 272.348 16.0581 274.639 18.4584C276.922 20.8667 278.072 24.3712 278.072 28.9638V48.1343C278.072 48.5743 277.71 48.9344 277.268 48.9344H277.276Z" fill="url(#paint6_linear_214_31761)"/>
<path id="Vector_8" d="M279.334 60.8799V55.3832C279.334 54.9431 279.696 54.5831 280.138 54.5831H281.778C283.097 54.5831 284.021 54.2951 284.552 53.727C285.082 53.1589 285.34 52.2388 285.34 50.9666V16.6982C285.34 16.2581 285.701 15.8981 286.144 15.8981H293.25C293.693 15.8981 294.054 16.2581 294.054 16.6982V51.6147C294.054 57.1674 289.528 61.672 283.949 61.672H280.138C279.696 61.672 279.334 61.312 279.334 60.8719V60.8799ZM289.689 10.1853C288.234 10.1853 286.996 9.68926 285.959 8.70513C284.922 7.721 284.407 6.52885 284.407 5.12867C284.407 3.64047 284.922 2.41631 285.959 1.44819C286.996 0.488064 288.234 0 289.689 0C291.144 0 292.438 0.496066 293.451 1.48019C294.4 2.40031 294.906 3.52846 294.963 4.85663C295.027 6.31282 294.448 7.76101 293.395 8.76114C292.39 9.70526 291.16 10.1853 289.689 10.1853Z" fill="url(#paint7_linear_214_31761)"/>
<path id="Vector_9" d="M318.928 49.9905C315.318 49.9905 312.135 49.2384 309.361 47.7262C306.588 46.214 304.433 44.1337 302.898 41.4854C301.354 38.837 300.59 35.8287 300.59 32.4522C300.59 29.0758 301.362 25.9474 302.898 23.323C304.433 20.6987 306.596 18.6264 309.361 17.1142C312.135 15.602 315.318 14.8499 318.928 14.8499C322.538 14.8499 325.721 15.602 328.495 17.1142C331.268 18.6264 333.423 20.6907 334.958 23.323C336.494 25.9474 337.266 28.9718 337.266 32.3882C337.266 35.8047 336.494 38.837 334.958 41.4854C333.415 44.1337 331.26 46.214 328.495 47.7262C325.721 49.2384 322.53 49.9905 318.928 49.9905ZM318.928 42.7656C320.777 42.7656 322.401 42.3255 323.808 41.4534C325.215 40.5813 326.316 39.3651 327.104 37.8049C327.9 36.2527 328.294 34.4685 328.294 32.4522C328.294 30.436 327.9 28.5877 327.104 27.0355C326.316 25.4833 325.215 24.2672 323.808 23.387C322.401 22.5149 320.769 22.0749 318.928 22.0749C317.087 22.0749 315.455 22.5149 314.048 23.387C312.641 24.2672 311.54 25.4753 310.752 27.0355C309.964 28.5877 309.562 30.396 309.562 32.4522C309.562 34.5085 309.956 36.2527 310.752 37.8049C311.54 39.3571 312.641 40.5733 314.048 41.4534C315.455 42.3335 317.087 42.7656 318.928 42.7656Z" fill="url(#paint8_linear_214_31761)"/>
<path id="Vector_10" d="M375.259 48.9344H368.161C367.719 48.9344 367.357 48.5743 367.357 48.1343V29.8279C367.357 27.2435 366.762 25.3073 365.572 24.0191C364.382 22.731 362.774 22.0829 360.757 22.0829C359.35 22.0829 358.007 22.4589 356.729 23.203C355.451 23.9471 354.422 25.1073 353.626 26.6835C352.838 28.2597 352.436 30.3399 352.436 32.9243V48.1423C352.436 48.5823 352.074 48.9424 351.632 48.9424H344.533C344.091 48.9424 343.729 48.5823 343.729 48.1423V16.7142C343.729 16.2741 344.091 15.9141 344.533 15.9141H351.56C352.002 15.9141 352.364 16.2741 352.364 16.7142V26.1554H351.31C351.704 23.219 352.532 20.9307 353.786 19.2905C355.041 17.6503 356.512 16.4981 358.208 15.8421C359.904 15.186 361.585 14.8579 363.257 14.8579C367.22 14.8579 370.339 16.0661 372.631 18.4664C374.914 20.8747 376.063 24.3792 376.063 28.9718V48.1343C376.063 48.5743 375.702 48.9344 375.259 48.9344Z" fill="url(#paint9_linear_214_31761)"/>
<path id="Vector_11" d="M418.632 44.8618C418.632 48.4943 417.82 51.6467 416.188 54.3191C414.564 56.9914 412.313 59.0557 409.459 60.5279C406.597 61.9921 403.277 62.7282 399.498 62.7282C396.371 62.7282 393.461 62.2321 390.751 61.248C388.315 60.3598 386.249 59.1677 384.545 57.6555C384.223 57.3755 384.199 56.8794 384.473 56.5514L388.187 52.0388C388.484 51.6707 389.023 51.6547 389.369 51.9748C390.534 53.0389 391.829 53.887 393.26 54.5191C394.956 55.2632 396.901 55.6392 399.096 55.6392C401.291 55.6392 403.26 55.2232 404.868 54.3911C406.476 53.559 407.714 52.3748 408.599 50.8466C409.475 49.3104 409.917 47.4782 409.917 45.3259V32.6522C409.917 30.3799 409.491 28.4517 408.631 26.8755C407.771 25.2993 406.637 24.1071 405.23 23.299C403.823 22.4909 402.264 22.0829 400.543 22.0829C398.654 22.0829 396.998 22.5229 395.591 23.395C394.184 24.2752 393.083 25.4673 392.295 26.9715C391.507 28.4837 391.105 30.1799 391.105 32.0602C391.105 33.9404 391.515 35.6286 392.327 37.1168C393.139 38.605 394.281 39.7732 395.76 40.6293C397.231 41.4854 398.935 41.9094 400.873 41.9094C402.497 41.9094 403.984 41.5894 405.327 40.9573C406.669 40.3252 407.787 39.4211 408.695 38.261C409.378 37.3889 409.861 36.4047 410.15 35.3166C410.295 34.7885 410.89 34.5405 411.356 34.8285L411.919 35.1726C412.152 35.3166 412.297 35.5726 412.305 35.8367C412.361 38.245 411.887 40.4213 410.866 42.3575C409.788 44.4138 408.213 46.046 406.147 47.2461C404.081 48.4543 401.612 49.0544 398.758 49.0544C395.72 49.0544 392.938 48.3423 390.414 46.9181C387.881 45.4939 385.871 43.5017 384.376 40.9413C382.881 38.381 382.133 35.4126 382.133 32.0442C382.133 28.6757 382.881 25.6993 384.376 23.115C385.871 20.5307 387.873 18.5064 390.381 17.0422C392.89 15.578 395.663 14.8419 398.694 14.8419C401.074 14.8419 403.188 15.298 405.061 16.2181C406.934 17.1382 408.446 18.4424 409.612 20.1226C410.608 21.5708 411.292 23.251 411.662 25.1633C411.758 25.6673 411.38 26.1314 410.874 26.1314H410.785C410.343 26.1314 409.981 25.7714 409.981 25.3313V16.6902C409.981 16.2501 410.343 15.8901 410.785 15.8901H417.82C418.262 15.8901 418.624 16.2501 418.624 16.6902V44.8458L418.632 44.8618Z" fill="url(#paint10_linear_214_31761)"/>
</g>
<defs>
<linearGradient id="paint0_linear_214_31761" x1="22.0093" y1="0.928121" x2="22.0093" y2="49.9905" gradientUnits="userSpaceOnUse">
<stop/>
<stop offset="0.884615" stop-color="#565656"/>
<stop offset="1" stop-color="#666666"/>
</linearGradient>
<linearGradient id="paint1_linear_214_31761" x1="66.5254" y1="14.8499" x2="66.5254" y2="49.9905" gradientUnits="userSpaceOnUse">
<stop/>
<stop offset="0.884615" stop-color="#565656"/>
<stop offset="1" stop-color="#666666"/>
</linearGradient>
<linearGradient id="paint2_linear_214_31761" x1="95.6905" y1="0" x2="95.6905" y2="48.9344" gradientUnits="userSpaceOnUse">
<stop/>
<stop offset="0.884615" stop-color="#565656"/>
<stop offset="1" stop-color="#666666"/>
</linearGradient>
<linearGradient id="paint3_linear_214_31761" x1="123.938" y1="14.8659" x2="123.938" y2="48.9504" gradientUnits="userSpaceOnUse">
<stop/>
<stop offset="0.884615" stop-color="#565656"/>
<stop offset="1" stop-color="#666666"/>
</linearGradient>
<linearGradient id="paint4_linear_214_31761" x1="173.794" y1="1.96826" x2="173.794" y2="48.9184" gradientUnits="userSpaceOnUse">
<stop/>
<stop offset="0.884615" stop-color="#565656"/>
<stop offset="1" stop-color="#666666"/>
</linearGradient>
<linearGradient id="paint5_linear_214_31761" x1="222.528" y1="14.8579" x2="222.528" y2="49.9985" gradientUnits="userSpaceOnUse">
<stop/>
<stop offset="0.884615" stop-color="#565656"/>
<stop offset="1" stop-color="#666666"/>
</linearGradient>
<linearGradient id="paint6_linear_214_31761" x1="261.901" y1="1.64822" x2="261.901" y2="48.9424" gradientUnits="userSpaceOnUse">
<stop/>
<stop offset="0.884615" stop-color="#565656"/>
<stop offset="1" stop-color="#666666"/>
</linearGradient>
<linearGradient id="paint7_linear_214_31761" x1="287.151" y1="0" x2="287.151" y2="61.672" gradientUnits="userSpaceOnUse">
<stop/>
<stop offset="0.884615" stop-color="#565656"/>
<stop offset="1" stop-color="#666666"/>
</linearGradient>
<linearGradient id="paint8_linear_214_31761" x1="318.928" y1="14.8499" x2="318.928" y2="49.9905" gradientUnits="userSpaceOnUse">
<stop/>
<stop offset="0.884615" stop-color="#565656"/>
<stop offset="1" stop-color="#666666"/>
</linearGradient>
<linearGradient id="paint9_linear_214_31761" x1="359.896" y1="14.8579" x2="359.896" y2="48.9424" gradientUnits="userSpaceOnUse">
<stop/>
<stop offset="0.884615" stop-color="#565656"/>
<stop offset="1" stop-color="#666666"/>
</linearGradient>
<linearGradient id="paint10_linear_214_31761" x1="400.382" y1="14.8419" x2="400.382" y2="62.7282" gradientUnits="userSpaceOnUse">
<stop/>
<stop offset="0.884615" stop-color="#565656"/>
<stop offset="1" stop-color="#666666"/>
</linearGradient>
</defs>
</svg>
