<svg preserveAspectRatio="none" width="100%" height="100%" overflow="visible" style="display: block;" viewBox="0 0 101.329 147.29" fill="none" xmlns="http://www.w3.org/2000/svg">
<g id="Group 1">
<path id="Vector" d="M20.1013 85.4463L19.6162 85.9315C18.9623 85.9315 16.6632 84.2863 12.74 81.0169C11.4322 80.0255 9.82917 79.0974 7.95193 78.1904C6.07468 77.2835 4.55601 76.5874 3.41701 76.1023C2.278 75.6172 1.7085 75.2797 1.7085 75.1109C1.7085 74.7945 2.36237 74.6258 3.67012 74.6258C6.28561 74.7945 8.94328 75.7015 11.6431 77.3257C14.343 78.9709 16.4312 80.5528 17.9077 82.1137C19.3842 83.6745 20.1224 84.7714 20.1224 85.4252L20.1013 85.4463ZM5.12551 64.5857C6.11687 64.5857 7.741 64.9865 10.0401 65.8091C12.3181 66.6317 15.2289 68.3402 18.7514 70.9557C22.2738 73.5712 25.1003 76.8405 27.2095 80.7638C27.8634 82.409 28.2009 83.2949 28.2009 83.4636L27.7158 84.2019L25.0159 81.502C15.8406 72.4954 9.13312 67.1801 4.89349 65.556L4.15525 64.8177C4.15525 64.649 4.47164 64.5646 5.1466 64.5646L5.12551 64.5857ZM15.925 89.3696C14.6172 89.3696 12.3603 88.9899 9.1753 88.2727C5.99031 87.5345 4.38727 86.7541 4.38727 85.9315C4.38727 85.594 5.29425 85.4463 7.08713 85.4463C7.90974 85.4463 9.09093 85.7416 10.6518 86.3111C12.2126 86.8806 13.5626 87.4501 14.7016 88.0196C15.8406 88.5891 16.4101 88.9688 16.4101 89.1165L15.925 89.3696ZM22.316 83.2316L22.8012 82.9785C23.2863 82.9785 24.594 84.0542 26.7244 86.1635C28.8548 88.2938 29.9094 89.9391 29.9094 91.0781C29.9094 92.2171 29.4243 92.8077 28.4329 92.8077C27.1252 92.8077 25.4799 92.4069 23.5183 91.5843C21.5567 90.7617 20.5653 90.1078 20.5653 89.6227L21.3036 89.3696C21.7887 89.3696 22.6535 89.5383 23.8769 89.8547C25.1003 90.1922 25.7963 90.3398 25.9651 90.3398L26.4502 89.8547C26.4502 89.2008 25.7541 88.0197 24.362 86.2901C22.9699 84.5816 22.2738 83.548 22.2738 83.2316H22.316Z" fill="var(--fill-0, #B60303)"/>
<path id="Vector_2" d="M44.9063 141.89C44.9063 142.375 44.5688 142.629 43.9149 142.629L42.565 142.017L41.2151 141.637C41.0463 141.637 39.5698 142.586 36.8067 144.464C34.0225 146.341 32.2296 147.29 31.407 147.29L30.6687 146.552C30.6687 146.383 31.4492 145.582 33.01 144.105C34.5709 142.629 35.3513 141.806 35.3513 141.658L34.8662 141.405C33.8748 141.405 32.6936 141.532 31.3015 141.764C29.9094 142.017 29.129 142.122 28.9602 142.122L28.222 141.637C28.222 140.498 31.2593 139.591 37.3129 138.937C38.4519 138.769 39.1902 138.368 39.5277 137.714C39.844 137.06 40.0128 135.352 40.0128 132.567C40.0128 131.428 39.8862 130.226 39.6542 129.003C39.4011 127.779 39.2956 127.083 39.2956 126.915L40.0339 126.429C41.8268 126.429 43.1345 127.083 43.9571 128.391C44.1259 128.729 44.2102 129.361 44.2102 130.353C44.2102 133.791 43.8095 136.744 42.9869 139.19C44.2946 140.161 44.9485 141.068 44.9485 141.89H44.9063Z" fill="var(--fill-0, #B60303)"/>
<path id="Vector_3" d="M57.4142 135.752C57.4142 138.051 57.6252 139.549 58.0259 140.287C58.4267 141.026 59.418 141.511 60.9789 141.764C62.5398 142.017 63.8897 142.46 65.0287 143.114L65.4084 143.599L65.7669 144.084C65.7669 144.421 65.3662 144.569 64.5436 144.569C64.2061 144.569 63.0249 144.4 60.9789 144.084C58.9329 143.768 57.583 143.599 56.9291 143.599C56.7604 143.599 55.9167 144.21 54.3558 145.434C52.7949 146.657 51.6138 147.269 50.7911 147.269L50.306 146.531C50.306 146.362 50.6224 145.961 51.2763 145.307C52.584 143.662 53.0059 142.861 52.4997 142.861C52.3309 142.861 51.3185 143.282 49.4412 144.084C47.564 144.907 46.2984 145.307 45.6445 145.307L44.9063 144.822C44.9063 144.337 46.3828 143.135 49.3147 141.258C52.2676 139.38 53.7441 137.208 53.7441 134.761C53.7441 134.107 53.7019 133.327 53.6176 132.42C53.5332 131.513 53.4066 130.542 53.259 129.467C53.0902 128.412 53.0059 127.547 53.0059 126.893L53.491 126.155H53.7441C56.5284 126.155 57.9205 126.978 57.9205 128.602C57.9205 129.256 57.8361 130.437 57.6674 132.167C57.4986 133.875 57.4142 135.077 57.4142 135.731V135.752Z" fill="var(--fill-0, #B60303)"/>
<path id="Vector_4" d="M24.7628 39.5276C24.7628 39.2112 24.4042 38.6418 23.666 37.798C22.9277 36.9754 22.0629 36.0051 21.0927 34.8451C20.1224 33.706 19.3631 32.8835 18.8779 32.3983C12.1705 23.2441 8.81674 17.5069 8.81674 15.2078L9.55498 14.4696L10.7784 15.2078C20.2701 29.4453 25.501 36.5536 26.4924 36.5536L26.9775 36.0684C26.9775 35.5833 24.805 32.4616 20.481 26.7455C16.1359 21.0294 13.9844 17.2538 13.9844 15.4609L14.7227 14.7227C15.0391 14.7227 17.3382 17.8444 21.5989 24.0456C25.8596 30.268 28.3064 33.3686 28.9602 33.3686L29.4454 33.1155C29.4454 32.4616 27.5259 29.4032 23.6871 23.9191C19.8482 18.435 17.9077 15.2922 17.9077 14.4696L18.6459 13.7313C19.2998 13.7313 21.177 16.3468 24.2988 21.5778C27.3994 26.8088 29.2133 29.4243 29.6985 29.4243L30.1836 28.9391C30.1836 28.6227 29.2766 26.8088 27.4837 23.5394C25.6909 20.2701 24.7839 18.1397 24.7839 17.1483C24.7839 16.4944 24.9526 16.1781 25.269 16.1781C25.7541 16.1781 27.1463 18.6037 29.4454 23.4128C31.7445 28.2431 32.9678 30.6476 33.1366 30.6476C33.453 30.6476 33.6217 30.3312 33.6217 29.6563C33.6217 28.9813 32.6514 26.4713 30.6687 22.0418C28.7071 17.6124 27.7158 15.0812 27.7158 14.4274L28.454 13.6891C28.7704 13.6891 30.0149 16.0726 32.1452 20.8184L35.5833 27.9267C36.5536 29.2344 37.2075 29.6352 37.5449 29.15C37.5449 28.9813 36.5325 25.4377 34.4654 18.4772C32.4194 11.5166 31.407 6.89731 31.407 4.6193C31.407 3.62794 31.6601 3.14279 32.1452 3.14279C32.7991 3.14279 34.0647 6.93947 35.9419 14.5539C37.8192 22.1684 39.0003 25.9651 39.5066 25.9651C40.1604 25.9651 40.4768 25.5643 40.4768 24.7417C40.4768 24.0878 39.7386 21.2614 38.2621 16.2835C36.7856 11.2846 36.0474 7.1715 36.0474 3.88104C36.0474 2.23581 36.2161 1.43429 36.5325 1.43429C37.6715 1.43429 38.8949 4.91457 40.2237 11.8751C41.5315 18.8357 42.3541 22.316 42.6705 22.316C43.1556 22.316 43.4087 21.4934 43.4087 19.8693C43.4087 19.2154 43.1134 16.7686 42.5439 12.5079C41.9744 8.24721 41.6791 5.39972 41.6791 3.92324C41.6791 1.30775 41.9322 0 42.4174 0C43.0712 0 43.7251 2.00378 44.379 6.01139C45.0328 10.019 45.3492 13.9 45.3492 17.6756C45.3492 20.1224 45.75 21.3668 46.5726 21.3668C47.0577 21.3668 47.3108 20.0591 47.3108 17.4436C47.3108 15.9671 47.1843 13.6048 46.9523 10.3143C46.6992 7.04495 46.5937 4.83022 46.5937 3.69122C46.5937 1.7296 46.8468 0.738224 47.3319 0.738224C48.1546 0.738224 48.7662 4.00761 49.167 10.5463C49.5678 17.0851 50.0318 20.3755 50.5169 20.3755C51.3395 20.3755 51.7403 17.9288 51.7403 13.0142C51.7403 8.09958 51.909 5.39972 52.2254 5.39972C53.3644 5.39972 53.9339 8.01521 53.9339 13.2462C53.9339 13.9001 53.8918 14.9547 53.8074 16.4312C53.723 17.9077 53.6808 18.9623 53.6808 19.6162C53.6808 21.0927 54.0816 21.4934 54.9042 20.8395L55.3893 20.1013C55.5581 19.7638 55.8745 18.4561 56.3807 16.1781C56.8658 13.879 57.3931 11.9173 57.9837 10.2932C58.5532 8.66906 59.1649 7.84647 59.8188 7.84647C60.3039 7.84647 60.557 8.41597 60.557 9.55497C60.557 10.3776 60.1563 12.1283 59.3337 14.8281C58.511 17.528 58.1103 19.363 58.1103 20.3544L58.8485 20.8395C59.3337 20.8395 60.7258 17.4014 63.0249 10.5252C65.324 3.64901 66.7794 0.210907 67.4332 0.210907C67.9184 0.210907 68.1715 1.43428 68.1715 3.90212C68.0028 5.20987 67.4754 7.1715 66.5684 9.78699C65.6615 12.4025 64.8599 14.7438 64.1217 16.7897C63.3835 18.8357 63.0249 19.9326 63.0249 20.1013L63.7631 20.8395C64.2483 20.8395 65.8513 17.528 68.5512 10.9049C71.251 4.28181 73.0017 0.970244 73.8243 0.970244C74.1618 0.970244 74.3095 1.30774 74.3095 1.94052C74.3095 3.75449 73.2126 7.08714 70.9979 12.0017C68.7832 16.9163 67.6864 19.7005 67.6864 20.3544L68.1715 20.6075C68.6566 20.6075 70.4284 17.8655 73.4447 12.3814C76.4609 6.89729 78.1483 4.15526 78.4858 4.15526C78.9709 4.15526 79.224 4.49274 79.224 5.14661C79.224 5.96923 78.4858 7.93083 77.0093 11.0315C76.0391 12.8454 75.0055 14.5961 73.9298 16.3046C72.8752 18.0342 72.0947 19.2998 71.5885 20.1013C71.1034 20.9239 70.8503 21.409 70.8503 21.5778L71.5885 22.0629C72.2424 22.0629 73.8032 19.9747 76.25 15.7984C78.6967 11.622 80.0888 9.53386 80.4263 9.53386C80.9115 9.53386 81.1646 9.87136 81.1646 10.5041C81.1646 11.8119 80.0256 14.1954 77.7265 17.6335L74.0353 22.7801L74.5204 23.5183C74.8368 23.5183 76.2078 21.8731 78.5702 18.6037C80.9326 15.3343 82.4512 13.6891 83.1051 13.6891C83.4426 13.6891 83.5902 14.0266 83.5902 14.6594C83.5902 15.6507 82.0716 17.8233 79.0553 21.1559C76.018 24.5097 74.5204 26.3447 74.5204 26.6822L75.0055 27.1673C76.1445 27.1673 79.4139 24.4675 84.8136 19.0678C89.7282 13.668 92.4281 10.9682 92.9132 10.9682C93.2296 10.9682 93.3983 11.3057 93.3983 11.9595C93.3983 13.7524 90.7406 17.0429 85.4253 21.7676C80.1099 26.5135 77.4523 28.9602 77.4523 29.129L77.9374 29.6141C79.2451 29.6141 82.8098 26.9986 88.6103 21.7676C94.4108 16.5366 97.659 13.9211 98.3129 13.9211L98.798 14.6594C98.798 15.7984 95.6763 18.9623 89.4751 24.1089C83.2527 29.2555 80.1521 31.9976 80.1521 32.3351L80.2787 33.0733H80.8904C81.3755 33.0733 84.2441 31.1539 89.4751 27.2939C94.7061 23.455 97.7434 21.5356 98.566 21.5356L99.0512 22.0207C99.0512 22.6746 98.566 23.4128 97.5747 24.2354C92.6601 27.8423 88.2517 30.8586 84.3285 33.3264C82.852 34.3178 82.1137 35.0349 82.1137 35.5411L82.5989 36.2794C82.7676 36.2794 84.9402 34.9716 89.0954 32.3561C93.2718 29.7406 96.0138 28.4329 97.3216 28.4329C98.1442 28.4329 98.3129 28.8337 97.8067 29.6563C97.6379 30.1414 96.5833 30.9218 94.6217 31.9976C92.6601 33.0522 90.5297 34.2123 88.2306 35.4357C85.9315 36.6591 84.455 37.5238 83.8012 38.009C82.9785 38.8316 83.2317 39.2323 84.5394 39.2323C84.8558 39.2323 86.6698 38.3253 89.9391 36.5325C93.2085 34.7396 95.4232 33.8326 96.5622 33.8326C97.3848 33.8326 97.7856 34.1701 97.7856 34.824C97.7856 35.1615 95.7818 36.2161 91.7742 38.009C87.7666 39.8018 85.7628 41.0463 85.7628 41.6791C85.7628 42.1642 86.0792 42.4173 86.733 42.4173C86.9018 42.4173 88.7368 41.9744 92.2593 41.0674C95.7818 40.1815 97.7856 39.7175 98.2707 39.7175C99.5785 39.7175 100.232 40.055 100.232 40.7088C100.232 41.3627 97.7012 42.2697 92.6179 43.4087C87.5346 44.5477 85.0034 45.3703 85.0034 45.8554C85.0034 46.5093 85.2565 46.8257 85.7417 46.8257C86.5643 46.8257 88.7579 46.3828 92.3648 45.4758C95.9716 44.5688 98.1653 44.1258 98.9879 44.1258C99.8105 44.1258 100.211 44.3789 100.211 44.8641C100.211 45.3492 99.8527 45.7289 99.1144 45.9609C98.3762 46.214 96.8575 46.5304 94.5795 46.9523C92.2804 47.353 90.0657 47.9014 87.9564 48.5553L86.8596 49.2935V50.1583L87.9564 50.5169C88.779 50.5169 90.5719 50.2005 93.3561 49.5466C96.1404 48.8928 97.7645 48.5553 98.2707 48.5553C99.0933 48.5553 99.4941 48.8084 99.4941 49.2935C99.4941 50.2849 95.8029 51.3395 88.4415 52.4785L87.5767 52.9637V53.9339C87.8299 54.2714 88.2728 54.4191 88.9267 54.4191C89.4118 54.4191 90.7617 54.1659 92.9765 53.6808C95.1912 53.1957 96.6888 52.9426 97.5114 52.9426L98.2496 53.1957C98.2496 54.0183 96.4357 54.7987 92.8499 55.537C89.2431 56.2752 87.4502 56.8869 87.4502 57.372C87.4502 57.8572 88.0197 58.1103 89.1798 58.1103C90.0024 58.1103 91.3101 57.8572 93.103 57.372L95.8029 56.8869C96.6255 56.8869 97.0263 57.14 97.0263 57.6251C97.0263 58.4477 94.685 59.186 90.0235 59.8399C85.362 60.4937 83.0207 61.4007 83.0207 62.5397L83.759 62.7928C84.0754 62.7928 84.9402 62.6241 86.3323 62.3077C87.7244 61.9913 88.7368 61.8226 89.3907 61.8226C90.3821 61.8226 90.8672 62.16 90.8672 62.7928C90.8672 63.278 89.7282 63.6998 87.4291 64.0162C85.13 64.3537 83.6535 64.5014 83.0207 64.5014C82.1981 64.5014 81.7974 64.7545 81.7974 65.2396L82.5356 65.7247C83.1895 65.7247 84.0965 65.6403 85.2355 65.4716C86.3745 65.3029 87.0283 65.2185 87.1971 65.2185C87.8509 65.2185 88.1884 65.4716 88.1884 65.9567C88.1884 67.0957 85.8893 67.6653 81.3122 67.6653C80.8271 67.834 80.574 68.4035 80.574 69.3948C80.8904 69.3948 81.481 69.3527 82.2825 69.2683C83.1051 69.1839 83.7168 69.0996 84.1175 69.0152L84.9823 69.1417C84.9823 69.6269 84.6238 70.0065 83.8855 70.2386C83.1473 70.4917 82.177 70.7659 80.9326 71.1033C79.7092 71.4408 78.6756 71.926 77.853 72.5799C76.2078 74.0563 74.4571 74.9 72.5799 75.1531C70.7026 75.4062 69.4371 75.6172 68.7832 75.7648C68.6144 75.7648 67.1801 76.946 64.4803 79.3295C61.7804 81.713 59.1227 82.8942 56.5072 82.8942C55.8534 82.8942 54.7144 82.6199 53.0691 82.0294C51.4239 81.4599 50.2005 81.1645 49.3779 81.1645C48.8928 81.1645 47.9014 81.4177 46.425 81.9028C44.9485 82.3879 43.7251 82.641 42.7548 82.641C40.9409 82.641 39.3167 81.945 37.8402 80.5529C36.3638 79.1608 35.5411 78.3803 35.3935 78.2116C35.2248 78.2116 34.4443 78.0006 33.0522 77.5999C31.6601 77.1991 30.5211 76.7773 29.6141 76.3765C28.7071 75.9757 28.2642 75.5117 28.2642 75.0266L28.7493 74.5415C29.2344 74.5415 29.9727 74.7524 30.964 75.1531C31.9554 75.5539 32.5882 75.7648 32.9257 75.7648L33.4108 75.2797C33.4108 74.7946 32.0187 74.2251 29.2344 73.5712C26.4502 72.9173 25.0581 72.2634 25.0581 71.6096L25.7963 71.1245C26.4502 71.1245 27.5259 71.2932 28.9813 71.6096L31.1961 72.3478C32.0187 72.3478 32.4194 72.2634 32.4194 72.0947C32.4194 71.1033 31.8499 70.6182 30.7109 70.6182C24.0035 69.4792 20.6497 68.2558 20.6497 66.927L21.388 66.1887C21.8731 66.1887 23.3918 66.6739 25.9229 67.6653C28.454 68.6566 30.0571 69.1417 30.7109 69.1417L31.4492 68.6566C31.4492 68.1715 30.8375 67.6652 29.6141 67.1801C28.3907 66.695 26.8299 66.1255 24.9526 65.4505C23.0754 64.7967 21.5567 64.1428 20.4177 63.4889C17.3171 61.5273 14.1954 58.9962 11.0947 55.8744C7.99413 52.7738 6.43327 50.8122 6.43327 49.9896C6.43327 49.3357 6.68638 48.9982 7.17151 48.9982C7.4879 48.9982 9.2175 50.4325 12.3181 53.3011C15.4187 56.1697 17.4647 57.6041 18.4561 57.6041L18.9412 56.8658C18.9412 56.5494 18.4139 55.9799 17.3382 55.1573C16.2624 54.3347 14.9125 53.1957 13.2884 51.7192C11.6432 50.2427 10.251 48.7029 9.11204 47.0577C8.6269 46.4038 8.33161 45.8344 8.24724 45.3492V44.1258L8.62691 43.6407C8.9433 43.6407 10.6307 45.3281 13.6681 48.6819C16.6843 52.0356 18.7092 53.723 19.6795 53.723L20.1646 53.2379C20.1646 52.9215 18.3506 50.7067 14.7649 46.6148C11.158 42.5228 9.36515 39.9073 9.36515 38.7683L9.85028 38.0301C10.1667 38.0301 12.0228 39.9495 15.3766 43.7884C18.7303 47.6272 20.9872 49.5678 22.1262 49.5678L22.3793 49.0826C22.3793 48.9139 20.4177 46.6359 16.4945 42.2064C12.5712 37.7769 10.6096 34.6763 10.6096 32.8834L10.8627 32.3983C11.3479 32.3983 13.3938 34.7396 17.0007 39.4011C20.6075 44.0626 22.8012 46.4039 23.6238 46.4039L24.362 45.9187C24.362 45.4336 23.4129 43.9993 21.5356 41.6158C19.6584 39.2534 17.6124 36.7012 15.3977 34.0014C13.1829 31.3015 11.7486 29.4664 11.0947 28.4751C10.1245 26.8299 10.1878 26.0283 11.3479 26.0283C11.6642 26.0283 13.647 28.3274 17.2327 32.9045C20.8396 37.4816 23.1176 39.7808 24.1089 39.7808L24.5941 39.5276H24.7628ZM30.1625 52.2887C28.8548 52.2887 27.4627 52.816 25.9862 53.8918C24.5097 54.9675 23.7714 56.8025 23.7714 59.418C23.7714 60.0719 23.898 60.7258 24.13 61.3796C24.3831 62.0335 25.037 62.7296 26.0916 63.4678C27.1463 64.2061 28.4962 64.5646 30.1414 64.5646C34.7185 64.5646 37.0176 62.6874 37.0176 58.9118C37.0176 57.1189 36.3216 55.5581 34.9295 54.2503C33.5373 52.9426 31.9343 52.2887 30.1414 52.2887H30.1625ZM30.4156 55.9799C32.0609 55.9799 32.8624 56.9502 32.8624 58.9329C32.8624 60.2406 31.9554 60.8945 30.1625 60.8945C28.5173 60.8945 27.7158 60.2406 27.7158 58.9329C27.7158 56.9713 28.6017 55.9799 30.4156 55.9799ZM42.4384 42.9657C42.4384 41.1729 41.7846 39.5698 40.4768 38.1777C39.1691 36.7856 37.6926 36.0895 36.0685 36.0895C33.9381 36.0895 32.1452 36.7012 30.6687 37.9246C29.1923 39.148 28.454 40.8354 28.454 42.9657C28.454 47.2265 30.8164 49.3568 35.5622 49.3568C37.3551 49.3568 38.9582 48.703 40.3503 47.3952C41.7424 46.0875 42.4384 44.611 42.4384 42.9657ZM32.8624 42.9657C32.8624 42.3119 33.1999 41.658 33.8537 41.0041C34.5076 40.3503 35.1615 40.0339 35.8153 40.0339C36.4692 40.0339 37.0809 40.3714 37.6504 41.0041C38.2199 41.658 38.5152 42.3119 38.5152 42.9657C38.5152 44.4422 37.5239 45.1805 35.5622 45.1805C33.7694 45.1805 32.8624 44.4422 32.8624 42.9657ZM48.5764 73.4025C48.5764 69.1417 46.5304 67.0114 42.4384 67.0114C38.3465 67.0114 36.5536 68.741 36.5536 72.158C36.5536 73.8032 37.1653 75.2586 38.3887 76.5664C39.612 77.8741 41.2994 78.528 43.4298 78.528C46.8679 78.528 48.5764 76.8195 48.5764 73.3814V73.4025ZM45.8765 51.3184C44.0837 51.3184 42.6072 52.0145 41.4682 53.4066C40.3292 54.7987 39.7386 56.4018 39.7386 58.1946C39.7386 62.2866 42.3541 64.3326 47.5851 64.3326C49.5467 64.3326 51.0653 63.5944 52.12 62.1179C53.1746 60.6414 53.723 59.2493 53.723 57.9415C53.723 53.5332 51.1075 51.3184 45.8765 51.3184ZM40.2237 72.9173C40.2237 71.2721 41.0463 70.4706 42.6705 70.4706C44.2946 70.4706 45.1172 71.3776 45.1172 73.1704C45.1172 74.4782 44.379 75.132 42.9025 75.132C41.0885 75.132 40.2026 74.3938 40.2026 72.9173H40.2237ZM54.4613 29.4664C54.4613 28.3274 53.9339 27.1673 52.8582 26.0283C51.7825 24.8893 50.4326 24.3198 48.8084 24.3198C44.0626 24.3198 41.6791 26.6189 41.6791 31.196C41.6791 32.5038 42.2908 33.5373 43.5142 34.2545C44.7375 34.9927 45.9187 35.3513 47.0788 35.3513C48.8717 35.3513 50.5591 34.6974 52.12 33.3897C53.6808 32.0819 54.4613 30.7742 54.4613 29.4664ZM49.0615 58.1946C49.0615 59.5024 48.3233 60.1562 46.8468 60.1562C45.0328 60.1562 44.1469 59.5024 44.1469 58.1946C44.1469 56.4018 44.9696 55.4948 46.5937 55.4948C48.2178 55.4948 49.0404 56.4018 49.0404 58.1946H49.0615ZM48.0913 32.1663C46.2773 32.1663 45.3914 31.3437 45.3914 29.7196C45.3914 28.0954 46.446 27.2728 48.5764 27.2728C50.0529 27.2728 50.7911 28.011 50.7911 29.4875C50.7911 31.3015 49.8842 32.1874 48.0913 32.1874V32.1663ZM53.9761 50.0951C54.4613 50.0951 55.1573 49.9685 56.0643 49.7365C56.9713 49.4834 57.9837 48.7451 59.1438 47.5218C60.2828 46.2984 60.8523 44.6953 60.8523 42.7337C60.8523 40.6034 60.2407 39.0847 59.0173 38.1988C57.7939 37.2918 56.5916 36.8489 55.4526 36.8489C53.9761 36.8489 52.2676 37.334 50.306 38.3254C48.3444 39.3167 47.353 40.9409 47.353 43.24C47.353 45.0539 48.0069 46.6358 49.3147 48.028C50.6224 49.4201 52.1833 50.1161 53.9761 50.1161V50.0951ZM54.4613 41.2572C56.2541 41.2572 57.1611 42.0799 57.1611 43.704C57.1611 45.3281 56.2541 46.1507 54.4613 46.1507C52.6684 46.1507 51.7614 45.3281 51.7614 43.704C51.7614 42.0799 52.6684 41.2572 54.4613 41.2572ZM64.2693 72.6853C64.2693 70.8924 63.4889 69.5847 61.9281 68.7621C60.3672 67.9394 58.8696 67.5387 57.3931 67.5387C53.7863 67.5387 51.9934 69.8378 51.9934 74.4149C51.9934 78.0217 53.7863 79.8146 57.3931 79.8146C58.2158 79.8146 59.0384 79.6881 59.8399 79.435C60.6625 79.1819 61.5906 78.4858 62.6663 77.3468C63.7209 76.2078 64.2693 74.6469 64.2693 72.6853ZM58.3845 71.6939C59.861 71.6939 60.5992 72.3478 60.5992 73.6556C60.5992 75.6172 59.7766 76.6085 58.1525 76.6085C56.676 76.6085 55.9378 75.7226 55.9378 73.9087C55.9378 72.4322 56.7604 71.6939 58.3845 71.6939ZM56.1698 56.233C56.1698 58.047 56.8236 59.418 58.1314 60.4094C59.4391 61.3796 60.9156 61.8859 62.5397 61.8859C66.6317 61.8859 68.6777 60.0086 68.6777 56.233C68.6777 54.7566 68.1504 53.4066 67.0747 52.1832C66.02 50.9598 64.649 50.3482 63.0249 50.3482C60.8945 50.3482 59.2282 50.9177 57.9837 52.0567C56.7604 53.1957 56.1487 54.5878 56.1487 56.233H56.1698ZM64.2693 35.3724C65.4084 35.3724 66.7583 34.8872 68.3191 33.8959C69.88 32.9256 70.6393 31.3648 70.6393 29.2344C70.6393 25.7963 68.8465 24.0878 65.2396 24.0878C60.8102 24.0878 58.6165 25.965 58.6165 29.7406C58.6165 31.5546 59.1438 32.9256 60.2196 33.917C61.2742 34.9084 62.6241 35.3935 64.2693 35.3935V35.3724ZM62.7929 53.7863C64.417 53.7863 65.2396 54.7565 65.2396 56.7392C65.2396 58.2157 64.3326 58.954 62.5397 58.954C61.0633 58.954 60.325 58.1314 60.325 56.5072C60.325 54.7143 61.1476 53.8074 62.7718 53.8074L62.7929 53.7863ZM64.5014 32.1874C63.0249 32.1874 62.2866 31.4491 62.2866 29.9727C62.2866 28.1798 63.1093 27.2728 64.7334 27.2728C66.3575 27.2728 67.1801 28.011 67.1801 29.4875C67.1801 31.3015 66.2732 32.1874 64.4803 32.1874H64.5014ZM66.231 67.5387C66.231 68.6777 66.9692 69.7534 68.4457 70.7237C69.9222 71.694 71.1456 72.2002 72.1369 72.2002C73.6134 72.2002 74.9633 71.6729 76.1867 70.5971C77.4101 69.5425 78.0218 68.4246 78.0218 67.2856C78.0218 65.8091 77.4101 64.4592 76.1867 63.2358C74.9633 62.0124 73.529 61.4007 71.8838 61.4007C70.4073 61.4007 69.0996 62.0546 67.9606 63.3623C66.8216 64.6701 66.231 66.0622 66.231 67.5387ZM67.4543 40.5401C67.4543 44.3157 69.416 46.1929 73.3392 46.1929C74.9633 46.1929 76.482 45.6656 77.8741 44.5899C79.2662 43.5352 79.9623 42.1853 79.9623 40.5401C79.9623 36.6169 78.085 34.6552 74.3095 34.6552C72.3478 34.6552 70.7026 35.2669 69.3949 36.4903C68.0871 37.7137 67.4332 39.0636 67.4332 40.5401H67.4543ZM74.3305 66.8005L73.5923 68.2769L72.3689 69.0152C70.7237 69.0152 69.9222 68.4457 69.9222 67.3067C69.9222 65.5138 70.6604 64.6068 72.1369 64.6068C73.6134 64.6068 74.3516 65.345 74.3516 66.8215L74.3305 66.8005ZM71.8838 40.7721C71.8838 38.9792 72.7064 38.0723 74.3305 38.0723C75.807 38.0723 76.5453 38.8948 76.5453 40.519C76.5453 42.1431 75.6383 42.9657 73.8454 42.9657C72.5377 42.9657 71.8838 42.2275 71.8838 40.751V40.7721ZM77.7687 59.9243C82.1981 59.9243 84.3917 58.1314 84.3917 54.5245C84.3917 53.048 83.9066 51.6559 82.9153 50.3482C81.945 49.0404 80.5529 48.3866 78.7389 48.3866C77.4312 48.3866 76.0391 48.8717 74.5626 49.863C73.0861 50.8333 72.3478 52.3098 72.3478 54.2925C72.3478 55.769 72.833 57.0767 73.8243 58.2157C74.8157 59.3547 76.1234 59.9453 77.7476 59.9453L77.7687 59.9243ZM78.7389 56.9713C76.7773 56.9713 75.7859 56.233 75.7859 54.7565C75.7859 53.9339 76.1023 53.2379 76.7562 52.6684C77.4101 52.0989 78.064 51.8036 78.7178 51.8036C80.0256 51.8036 80.6794 52.7106 80.6794 54.5034C80.6794 56.1487 80.0256 56.9502 78.7178 56.9502L78.7389 56.9713Z" fill="var(--fill-0, #050417)"/>
<path id="Vector_5" d="M59.1438 121.283C57.8361 121.283 55.8745 121.03 53.259 120.545C50.6435 120.059 48.7662 119.806 47.6061 119.806C46.7835 119.806 45.1594 120.291 42.6915 121.283C40.2448 122.274 38.2621 122.759 36.8067 122.759C35.9841 122.759 34.2756 122.548 31.6601 122.148C29.0446 121.747 27.1673 121.536 26.0072 121.536C16.3468 121.536 7.84647 122.928 0.485131 125.712C0.147649 125.058 0 124.088 0 122.759C0 115.883 2.2991 109.956 6.87621 104.957C11.4533 99.9581 16.0304 97.4692 20.6286 97.4692C21.9364 97.4692 23.4129 97.7223 25.0581 98.2074C26.6822 98.6926 27.5892 98.9457 27.7579 98.9457C28.4118 98.9457 28.7282 98.6926 28.7282 98.2074L28.1165 97.1106L27.5048 96.0138C27.5048 95.1912 27.6736 94.7904 27.99 94.7904C28.3063 94.7904 28.7282 95.1279 29.2133 95.7818C29.6985 96.4357 30.1414 97.5536 30.5633 99.0933C30.964 100.654 31.175 102.32 31.175 104.134C31.175 104.957 31.1328 106.434 31.0484 108.564C30.964 110.694 30.9218 112.002 30.9218 112.487C30.9218 118.056 32.6303 120.84 36.0684 120.84C37.2074 120.84 39.1691 120.313 41.9533 119.237C44.7375 118.182 47.0155 117.634 48.8295 117.634C49.3146 117.634 49.8841 117.676 50.538 117.76C51.1919 117.845 51.677 117.887 52.0145 117.887C54.63 117.887 55.9377 116.094 55.9377 112.487C55.9377 111.348 55.2417 110.23 53.8496 109.176C52.4574 108.121 51.1075 107.573 49.7998 107.573C48.1545 107.573 46.2351 108.965 44.0415 111.749C41.8267 114.533 39.9917 115.925 38.5152 115.925C35.8997 115.925 34.592 113.964 34.592 110.04C34.592 108.416 35.0349 106.117 35.9419 103.164C36.8278 100.211 37.2918 98.0176 37.2918 96.5411C37.2918 94.5795 36.8489 93.1452 35.9419 92.2382C35.0349 91.3312 34.1068 90.8039 33.1155 90.6352C32.1241 90.4664 31.639 90.3188 31.639 90.15C31.639 89.8336 32.1241 89.6649 33.1155 89.6649C34.7396 89.6649 36.2161 90.5297 37.5238 92.2382C38.8316 93.9467 39.6542 94.8115 39.9706 94.8115C40.287 94.8115 40.9409 94.0733 41.9322 92.5968C42.9236 91.1203 44.379 89.686 46.3406 88.2939C48.3022 86.9018 50.6857 86.2057 53.4488 86.2057C56.7182 86.2057 59.418 87.7244 61.5484 90.7406C63.6787 93.778 64.8177 95.2756 64.9865 95.2756L68.6777 94.2842C71.1244 93.4616 74.1618 93.0608 77.7686 93.0608C82.6832 93.0608 87.8298 95.5919 93.2296 100.675C98.6293 105.759 101.329 112.044 101.329 119.574L100.591 123.751C100.253 123.751 97.2372 123.266 91.5 122.274C85.7628 121.283 81.1013 120.798 77.5155 120.798C71.7783 120.798 67.5387 120.882 64.7545 121.051C61.9702 121.219 60.093 121.304 59.1016 121.304L59.1438 121.283ZM12.9931 119.321C12.9931 118.667 12.0017 118.33 10.0401 118.33C8.56362 118.33 7.29806 118.499 6.24343 118.815C5.18879 119.152 4.45055 119.553 4.0287 120.038L3.41701 121.262C3.41701 121.916 3.7334 122.253 4.38727 122.253C5.20989 122.253 6.83402 121.894 9.30186 121.156C11.7486 120.418 12.9931 119.806 12.9931 119.321ZM4.8935 115.145C4.8935 115.799 5.71611 116.115 7.34024 116.115C8.47925 116.115 9.82918 115.862 11.39 115.377C12.9509 114.892 13.7313 114.47 13.7313 114.153C13.7313 113.331 12.74 112.93 10.7783 112.93C6.85511 112.93 4.8935 113.668 4.8935 115.145ZM12.0228 107.784C9.06984 107.784 7.59336 108.269 7.59336 109.26C7.59336 110.083 9.06984 110.483 12.0228 110.483C14.6383 110.483 15.9461 110.083 15.9461 109.26C15.9461 108.269 14.6383 107.784 12.0228 107.784ZM11.2846 104.599C11.2846 105.59 13.0774 106.075 16.6843 106.075C17.8233 106.075 18.3928 105.822 18.3928 105.337C18.3928 104.029 17.0007 103.375 14.2165 103.375C12.2548 103.375 11.2635 103.776 11.2635 104.599H11.2846ZM14.9758 100.907C14.9758 101.73 16.5366 102.131 19.6373 102.131C20.6075 102.131 21.1138 101.878 21.1138 101.392C21.1138 100.401 19.8904 99.9159 17.4225 99.9159C15.7773 99.9159 14.9758 100.253 14.9758 100.907ZM28.222 117.592C19.8693 117.592 15.714 117.992 15.714 118.815C15.714 119.469 16.7687 119.806 18.899 119.806C19.5529 119.806 20.7763 119.764 22.5902 119.68C24.3831 119.595 25.7752 119.553 26.7666 119.553C28.8969 119.553 29.9516 119.237 29.9516 118.583C29.9516 117.929 29.3821 117.592 28.222 117.592ZM28.9602 114.892C28.9602 113.584 25.7752 112.93 19.3842 112.93C17.4225 112.93 16.4312 113.331 16.4312 114.153L16.6843 114.765L17.7811 115.018L19.4896 115.145H22.316C23.6238 115.145 24.8472 115.229 26.0072 115.398C27.9689 115.567 28.9602 115.398 28.9602 114.913V114.892ZM28.7071 110.968C28.7071 109.661 26.4924 109.007 22.084 109.007C19.9537 109.007 18.899 109.408 18.899 110.23C18.899 111.053 21.4301 111.454 26.5135 111.454C27.99 111.454 28.7282 111.285 28.7282 110.968H28.7071ZM20.8606 106.539C20.8606 106.708 21.9153 106.982 24.0456 107.404C26.176 107.805 27.3994 108.016 27.7368 108.016C28.3907 108.016 28.7071 107.931 28.7071 107.762L27.9689 106.792C27.4837 106.476 26.7455 106.138 25.7541 105.801C24.7628 105.484 23.7925 105.316 22.8012 105.316C21.4934 105.316 20.8395 105.716 20.8395 106.539H20.8606ZM22.5691 102.869C22.5691 103.354 23.4339 103.839 25.1424 104.345C26.872 104.831 28.1165 105.084 28.9391 105.084L29.4243 104.599C29.4243 104.282 28.8126 103.776 27.5892 103.122C26.3658 102.468 25.1635 102.131 24.0245 102.131C23.0543 102.131 22.5481 102.384 22.5481 102.869H22.5691ZM29.1922 101.392C29.1922 100.253 28.0532 99.6839 25.7541 99.6839C24.7628 99.6839 24.2777 99.8526 24.2777 100.169C24.2777 100.654 24.8472 101.076 26.0072 101.392C27.1463 101.73 27.9689 101.878 28.454 101.878L29.1922 101.392ZM34.3388 96.731L33.6006 97.4692C33.1155 97.4692 32.546 96.9841 31.8921 95.9927C31.2382 95.0013 30.9218 94.1998 30.9218 93.5459L31.407 93.0608C32.0608 93.0608 32.7147 93.5038 33.3686 94.4107C34.0225 95.3177 34.3599 96.0982 34.3599 96.752L34.3388 96.731ZM39.9917 107.53C39.9917 106.539 39.4222 106.054 38.2621 106.054C36.9543 106.054 36.3005 107.277 36.3005 109.745C36.3005 110.715 36.638 111.222 37.2918 111.222C37.6082 111.222 38.1566 110.779 38.8949 109.872C39.6331 108.965 39.9917 108.184 39.9917 107.53ZM42.9447 109.977C42.9447 109.154 42.6915 108.754 42.2064 108.754C41.5525 108.754 40.7721 109.281 39.8651 110.357C38.9581 111.433 38.5152 112.276 38.5152 112.93C38.5152 113.584 38.8316 113.9 39.5066 113.9C39.9917 113.9 40.6877 113.415 41.5947 112.424C42.4806 111.433 42.9447 110.631 42.9447 109.977ZM41.7213 105.569C42.0377 105.569 42.4173 105.231 42.8181 104.577C43.2189 103.924 43.4298 103.438 43.4298 103.101C43.4298 101.793 42.8603 101.139 41.7213 101.139C39.7597 101.139 38.7683 101.962 38.7683 103.586C38.7683 104.894 39.7597 105.548 41.7213 105.548V105.569ZM46.8679 92.5546C46.8679 91.9007 46.3828 91.5633 45.3914 91.5633C43.7462 91.5633 42.9447 92.3015 42.9447 93.778C42.9447 94.6006 43.4298 95.0013 44.4211 95.0013C46.0453 95.0013 46.8679 94.1787 46.8679 92.5546ZM44.9063 100.907C46.0453 100.907 46.6148 100.253 46.6148 98.9457C46.6148 97.8067 46.0453 97.2161 44.9063 97.2161C43.5985 97.2161 42.9447 97.8699 42.9447 99.1777C42.9447 100.317 43.5985 100.907 44.9063 100.907ZM45.3914 104.092L44.2946 104.83L43.6829 106.054C43.6829 107.193 44.2524 107.784 45.3914 107.784C46.5304 107.784 47.121 107.045 47.121 105.569C47.121 104.577 46.5515 104.092 45.3914 104.092ZM48.5764 88.3782C47.2686 88.3782 46.6148 88.8634 46.6148 89.8547C46.6148 90.8461 47.2686 91.3312 48.5764 91.3312L49.5467 91.2047L50.0318 90.1079C50.0318 88.9689 49.5467 88.3782 48.5553 88.3782H48.5764ZM48.5764 97.4692C49.7154 97.4692 50.306 96.8997 50.306 95.7607C50.306 94.6217 49.7365 94.0522 48.5764 94.0522C47.4163 94.0522 46.8679 94.6217 46.8679 95.7607C46.8679 96.8997 47.4374 97.4692 48.5764 97.4692ZM50.7911 102.384C50.7911 101.076 50.2216 100.422 49.0826 100.422C47.6061 100.422 46.8679 100.992 46.8679 102.131C46.8679 103.438 47.5218 104.092 48.8295 104.092C50.1373 104.092 50.7911 103.523 50.7911 102.384ZM52.0145 96.731C50.7068 96.731 50.0529 97.3848 50.0529 98.6926L50.6646 100.042L52.0145 100.654C53.3222 100.654 53.9761 100.085 53.9761 98.9246C53.9761 97.4481 53.3222 96.7098 52.0145 96.7098V96.731ZM51.7614 94.2842C53.2379 94.2842 53.9761 93.6303 53.9761 92.3226C53.9761 91.3312 53.4066 90.8461 52.2676 90.8461C50.9599 90.8461 50.306 91.5 50.306 92.8077C50.306 93.7991 50.7911 94.2842 51.7825 94.2842H51.7614ZM52.2465 87.1549C51.1075 87.1549 50.5169 87.5556 50.5169 88.3782C50.5169 89.2009 51.0864 89.6016 52.2465 89.6016C53.2168 89.6016 53.723 89.2009 53.723 88.3782C53.723 87.5556 53.2379 87.1549 52.2465 87.1549ZM59.3547 119.553C60.325 119.553 63.3202 119.195 68.3191 118.456C73.3181 117.718 77.9374 117.36 82.1981 117.36C84.4972 117.36 85.6362 117.043 85.6362 116.368C85.6362 115.06 84.0753 114.407 80.9747 114.407C79.1608 114.407 76.3976 114.744 72.622 115.398C68.8675 116.052 66.5684 116.368 65.7458 116.368C65.0919 116.368 64.7756 116.284 64.7756 116.115C64.7756 115.292 66.9059 114.449 71.1666 113.542C75.4273 112.656 78.4436 112.192 80.2576 112.192C82.0715 112.192 82.9574 111.791 82.9574 110.968C82.9574 110.146 82.1348 109.745 80.5107 109.745C78.8865 109.745 76.3765 110.146 73.0228 110.968C69.6691 111.791 67.5809 112.192 66.7583 112.192L66.02 111.707C66.02 110.568 69.7745 109.408 77.3046 108.269C79.0975 108.1 80.0045 107.615 80.0045 106.792C80.0045 106.307 79.5193 106.054 78.528 106.054C77.389 106.054 75.3008 106.497 72.2635 107.404C69.2261 108.311 67.4754 108.754 66.9903 108.754C66.02 108.754 66.0833 108.353 67.2434 107.53L68.2348 106.792C69.2261 106.476 70.2807 106.096 71.4197 105.695C72.5588 105.295 73.4235 104.999 73.993 104.83L75.7226 104.345L76.8195 103.734L77.0726 103.122C77.0726 102.637 76.6718 102.384 75.8492 102.384C74.8789 102.384 73.1915 102.827 70.8081 103.734C68.4246 104.641 67.0747 105.084 66.7583 105.084L66.02 104.83C66.02 104.345 67.5387 103.396 70.555 102.004C73.5923 100.612 75.0899 99.7472 75.0899 99.4308C75.0899 98.9457 74.7524 98.6926 74.1196 98.6926C73.6345 98.6926 72.2424 99.3043 69.9433 100.528C67.6442 101.751 66.1888 102.363 65.5349 102.363L65.0498 101.878C65.0498 101.224 66.3997 100.211 69.0996 98.8191C71.7994 97.427 73.1493 96.4778 73.1493 95.9927C73.1493 95.6763 72.8119 95.5076 72.1791 95.5076C71.0401 95.5076 69.6058 95.9505 67.8762 96.8575C66.1677 97.7645 64.7334 98.6082 63.5733 99.4308L61.6117 100.654C60.9578 100.654 60.6203 100.338 60.6203 99.6628C60.6203 99.4941 60.8945 98.9668 61.4851 98.0598C62.0546 97.1528 62.3499 96.5411 62.3499 96.2247C62.3499 95.5708 61.8648 95.2334 60.8734 95.2334C59.8821 95.2334 58.0892 96.7099 55.4737 99.6628C52.8582 102.616 51.5505 104.324 51.5505 104.809C51.5505 104.978 52.6473 105.759 54.862 107.151C57.0767 108.543 58.1736 110.547 58.1736 113.162C58.1736 115.609 57.4353 117.571 55.9588 119.047C57.2666 119.384 58.4056 119.532 59.3969 119.532L59.3547 119.553ZM57.8783 95.0013C57.8783 94.01 57.14 93.5249 55.6635 93.5249L54.4402 94.2631L53.7019 95.7396C53.7019 96.7309 54.3558 97.2161 55.6635 97.2161L57.14 96.4778L57.8783 95.0013ZM56.4018 87.8931C55.2628 87.8931 54.6722 88.547 54.6722 89.8547C54.6722 90.6773 55.1573 91.0781 56.1487 91.0781C57.6251 91.0781 58.3634 90.5086 58.3634 89.3696C58.3634 88.3782 57.7095 87.8931 56.4018 87.8931ZM60.8101 92.3015C60.8101 91.4789 60.4094 91.0781 59.5868 91.0781C58.6165 91.0781 58.1103 91.5 58.1103 92.3015C58.1103 93.2717 58.511 93.778 59.3336 93.778C60.3039 93.778 60.8101 93.2928 60.8101 92.3015ZM68.6566 87.64C73.2337 82.5778 77.9796 78.4858 82.8942 75.3641C87.8087 72.2635 91.5632 70.7026 94.1787 70.7026C95.1701 70.7026 95.6552 71.0401 95.6552 71.6729L95.1701 72.4111C94.3475 73.065 92.639 74.0142 90.0235 75.2375C87.408 76.4609 85.6784 77.3257 84.8769 77.8108C81.6075 79.9412 78.6123 81.9872 75.9125 83.9488C73.2126 85.9104 71.3354 87.2603 70.2596 87.9986C69.1839 88.7368 68.509 89.0954 68.1715 89.0954C67.5176 89.0954 67.6863 88.6103 68.6566 87.6189V87.64ZM77.0093 97.9543C77.0093 98.6082 77.3257 98.9457 77.9796 98.9457C82.2403 98.9457 84.3706 98.3762 84.3706 97.2161C84.3706 96.5622 83.7168 96.2458 82.409 96.2458C81.5864 96.2458 80.4896 96.4567 79.0975 96.8575C77.7054 97.2583 77.0093 97.6379 77.0093 97.9543ZM77.2624 87.408C77.2624 87.2393 78.2116 86.4799 80.0888 85.0667C81.9661 83.6746 84.2652 82.2825 86.965 80.8903C89.6649 79.4982 91.7531 78.8022 93.2296 78.8022C94.706 78.8022 95.4443 79.0553 95.4443 79.5404C95.4443 80.0255 89.9602 82.5778 78.992 87.1549C77.6843 87.8087 77.1148 87.8931 77.2624 87.408ZM86.5854 100.169C82.8309 100.169 80.9325 100.823 80.9325 102.131C80.9325 102.616 81.4177 102.869 82.409 102.869C82.8942 102.869 83.8011 102.827 85.1089 102.742C86.4166 102.658 87.2392 102.616 87.5556 102.616C88.547 102.616 89.0321 102.299 89.0321 101.646C89.0321 100.654 88.2095 100.169 86.5854 100.169ZM81.6708 89.8547C81.6708 89.686 82.1981 89.3274 83.2738 88.7579C84.3285 88.1884 85.6784 87.6611 87.3236 87.1549C88.9688 86.6697 90.3399 86.4166 91.5 86.4166C92.9764 86.4166 93.9467 86.9018 94.4529 87.8931L94.1998 88.5048C93.8623 88.5892 93.1241 88.6313 91.9851 88.6313C90.1711 88.8001 88.5048 88.9899 86.9439 89.2431C85.3831 89.4962 84.2863 89.686 83.6324 89.8547C82.9785 90.0235 82.5778 90.1079 82.409 90.1079L81.6708 89.8547ZM84.1175 106.539C84.1175 107.193 86.2479 107.53 90.5086 107.53C91.9851 107.53 92.7233 107.277 92.7233 106.792C92.7233 105.801 91.4156 105.316 88.8001 105.316C85.6995 105.316 84.1386 105.716 84.1386 106.539H84.1175ZM96.3935 112.192C96.3935 110.715 94.2631 109.977 90.0024 109.977C88.6946 109.977 87.7877 110.062 87.3025 110.23L86.8174 111.222C86.8174 111.707 87.9986 112.171 90.382 112.572C92.7444 112.972 94.2631 113.183 94.917 113.183C95.8872 113.183 96.3935 112.867 96.3935 112.192ZM94.917 116.115C93.6092 115.799 92.2171 115.63 90.7406 115.63C89.2641 115.63 88.5259 115.883 88.5259 116.368C88.5259 117.845 91.057 118.815 96.1403 119.321C96.963 119.49 97.3637 119.237 97.3637 118.583C97.3637 117.275 96.5411 116.453 94.917 116.136V116.115Z" fill="var(--fill-0, #23542E)"/>
</g>
</svg>
