<svg preserveAspectRatio="none" width="100%" height="100%" overflow="visible" style="display: block;" viewBox="0 0 67.792 143.029" fill="none" xmlns="http://www.w3.org/2000/svg">
<path id="Union" d="M33.959 75.3643C52.6471 75.3643 67.792 90.5092 67.792 109.197C67.7918 127.885 52.647 143.029 33.959 143.029C15.271 143.029 0.126157 127.885 0.125977 109.197C0.125977 90.5092 15.2709 75.3643 33.959 75.3643ZM33.9375 80.4053C18.0338 80.4055 5.14648 93.3779 5.14648 109.197C5.14666 124.769 17.512 137.46 32.9678 137.974L33.7266 137.988H34.1914C49.9684 137.862 62.7293 125.101 62.7295 109.197C62.7295 93.2934 49.8414 80.4053 33.9375 80.4053ZM33.9375 82.4307C48.7445 82.4307 60.7254 94.4109 60.7256 109.218C60.7256 124.025 48.7445 136.006 33.9375 136.006C19.1306 136.006 7.15039 124.025 7.15039 109.218C7.15054 94.411 19.1518 82.4309 33.9375 82.4307ZM40.3926 115.229C39.359 115.314 38.642 116.116 39.1904 117.086L42.1855 122.253L43.2607 122.929C43.6401 123.561 43.4297 124.384 42.8184 124.742C42.6603 124.821 42.5018 124.877 42.3438 124.899L42.2061 124.953C41.7421 124.953 41.2785 124.7 41.0254 124.257L40.9619 122.991L37.9668 117.824C37.7138 117.381 37.3551 117.192 36.9756 117.191C36.5326 117.191 36.0683 117.466 35.752 117.93C35.1826 118.774 34.824 125.08 36.2158 127.885C37.5024 130.479 38.8945 131.154 40.4131 131.154C40.7506 131.154 41.0887 131.134 41.4473 131.07C42.5651 130.923 43.8514 130.458 45.5176 129.509C47.1838 128.539 48.2385 127.632 48.9346 126.746C50.1579 125.206 50.7485 123.561 48.7871 120.608C47.0787 118.014 41.5739 115.23 40.4346 115.229H40.3926ZM27.252 115.229C26.1129 115.229 20.6069 118.035 18.8984 120.608C16.9372 123.561 17.5277 125.206 18.751 126.746C19.447 127.632 20.4811 128.539 22.1475 129.488C23.8136 130.458 25.1214 130.902 26.2393 131.07C26.5082 131.102 26.7654 131.134 27.0195 131.147L27.2725 131.112C28.7911 131.112 30.1831 130.437 31.4697 127.843C32.8829 125.037 32.5252 118.73 31.9346 117.887C31.6182 117.423 31.1538 117.149 30.7109 117.148C30.3314 117.148 29.9728 117.339 29.7197 117.781L26.7246 122.949L26.6816 124.215C26.4075 124.658 25.9649 124.911 25.501 124.911C25.2901 124.911 25.058 124.848 24.8682 124.742C24.2566 124.384 24.0455 123.583 24.4248 122.929L25.501 122.253L28.4961 117.086C29.0445 116.137 28.3274 115.314 27.2939 115.229H27.252ZM51.9717 101.878C51.7398 101.878 51.4863 101.898 51.2334 101.898C48.0906 102.11 42.818 105.569 42.375 106.497C41.9598 107.367 42.2302 108.33 43.1865 108.447L43.4082 108.501H49.3779L50.5166 107.91C51.2548 107.91 51.8662 108.48 51.8662 109.197C51.866 109.914 51.2547 110.483 50.5166 110.483L49.3779 109.893H43.4082C42.2905 109.893 41.9536 110.948 42.3965 111.876C42.8407 112.805 48.1125 116.263 51.2549 116.453C51.508 116.474 51.7612 116.474 51.9932 116.474C54.9461 116.474 55.9588 115.187 56.6338 113.5C57.0345 112.445 57.3086 111.095 57.3086 109.176C57.3086 107.256 57.0556 105.906 56.6338 104.852C55.9588 103.143 54.9456 101.878 51.9717 101.878ZM15.7979 101.878C12.8242 101.878 11.8117 103.164 11.1367 104.852C10.736 105.906 10.4619 107.256 10.4619 109.176C10.4619 111.095 10.7149 112.445 11.1367 113.5C11.7906 115.155 12.7612 116.395 15.5059 116.471L15.7979 116.453C16.0298 116.453 16.2831 116.432 16.5361 116.432C19.6789 116.242 24.9526 112.783 25.3955 111.854C25.8383 110.926 25.5007 109.893 24.3828 109.893H18.4141L17.2959 110.483C16.5577 110.483 15.9463 109.893 15.9463 109.176C15.9463 108.459 16.5577 107.89 17.2959 107.89L18.4141 108.479H24.3828C25.5007 108.479 25.8384 107.425 25.3955 106.497C24.9526 105.548 19.6789 102.088 16.5361 101.898C16.2621 101.877 16.0298 101.878 15.7979 101.878ZM33.8535 103.144C30.5209 103.144 27.8213 105.843 27.8213 109.176C27.8213 112.508 30.5209 115.208 33.8535 115.208C37.1862 115.208 39.8857 112.508 39.8857 109.176C39.8857 105.843 37.1861 103.144 33.8535 103.144ZM33.832 106.308C35.414 106.308 36.7011 107.594 36.7012 109.176C36.7012 110.758 35.414 112.045 33.832 112.045C32.2503 112.045 30.9639 110.758 30.9639 109.176C30.9639 107.594 32.2503 106.308 33.832 106.308ZM27.3145 87.2607C26.9771 87.2608 26.6397 87.3026 26.2812 87.3447C25.1633 87.5135 23.8763 87.9565 22.21 88.9268C20.5438 89.897 19.489 90.8046 18.793 91.6904C17.5698 93.2301 16.98 94.8754 18.9414 97.8281C20.5969 100.342 25.8154 103.033 27.1748 103.198L27.3145 103.164H27.3574C28.3906 103.079 29.1075 102.279 28.5596 101.309L25.5645 96.1191L24.4883 95.4443C24.1088 94.8116 24.32 93.9894 24.9316 93.6309C25.1425 93.5254 25.3536 93.4619 25.5645 93.4619C26.0073 93.462 26.4716 93.7154 26.7246 94.1582L26.7871 95.4238L29.7822 100.591C30.0353 101.034 30.3947 101.224 30.7744 101.224C31.2172 101.223 31.6808 100.949 31.9971 100.485C32.5665 99.6413 32.9462 93.3356 31.5332 90.5303C30.2255 87.9359 28.8331 87.2607 27.3145 87.2607ZM40.5186 87.2607C39 87.2608 37.6079 87.936 36.3213 90.5303C34.9084 93.3355 35.2669 99.6409 35.8574 100.485C36.1343 100.891 36.5242 101.152 36.9141 101.211L37.0811 101.266C37.4605 101.266 37.8192 101.076 38.0723 100.634L41.0674 95.4658L41.1309 94.2002C41.384 93.7573 41.827 93.5039 42.291 93.5039C42.5018 93.504 42.7341 93.5675 42.9238 93.6729C43.5351 94.0315 43.7456 94.8326 43.3662 95.4863L42.291 96.1621L39.2959 101.329C38.7475 102.278 39.4645 103.101 40.498 103.186H40.54C41.6793 103.185 47.1841 100.38 48.8926 97.8066C50.854 94.8538 50.2634 93.2087 49.04 91.6689C48.344 90.7831 47.3107 89.897 45.6445 88.9268C43.9784 87.9566 42.6706 87.5135 41.5527 87.3447C41.1942 87.3025 40.856 87.2607 40.5186 87.2607ZM33.832 0C52.5201 0 67.665 15.1449 67.665 33.833C67.6649 52.521 52.5201 67.665 33.832 67.665C15.1442 67.6648 0.000128878 52.5208 0 33.833C0 15.1451 15.1442 0.000261228 33.832 0ZM33.832 5.04102C17.9284 5.04128 5.04102 17.9293 5.04102 33.833C5.04114 49.7366 17.9285 62.6238 33.832 62.624C49.7358 62.624 62.6239 49.7368 62.624 33.833C62.624 17.9291 49.7359 5.04102 33.832 5.04102ZM33.832 7.06641C48.639 7.06641 60.6199 19.0466 60.6201 33.8535C60.6201 48.6606 48.6391 60.6416 33.832 60.6416C19.0252 60.6413 7.04492 48.6604 7.04492 33.8535C7.04511 19.0468 19.0464 7.06667 33.832 7.06641ZM40.3926 39.8652C39.359 39.9496 38.642 40.7514 39.1904 41.7217L42.1855 46.8887L43.2607 47.5645C43.6402 48.1971 43.4298 49.0193 42.8184 49.3779C42.6603 49.457 42.5018 49.5124 42.3438 49.5352L42.2061 49.6104C41.7421 49.6103 41.2785 49.3568 41.0254 48.9141L40.9619 47.6484L37.9668 42.4805C37.7137 42.0378 37.3551 41.8477 36.9756 41.8477C36.5327 41.8477 36.0683 42.122 35.752 42.5859C35.1825 43.4296 34.8237 49.7366 36.2158 52.542C37.5024 55.1362 38.8945 55.8114 40.4131 55.8115C40.7506 55.8115 41.0887 55.7687 41.4473 55.7266C42.5651 55.5578 43.8514 55.1147 45.5176 54.1445C47.1838 53.1743 48.2385 52.2677 48.9346 51.3818C50.1579 49.8421 50.7486 48.197 48.7871 45.2441C47.0786 42.6709 41.5737 39.8653 40.4346 39.8652H40.3926ZM27.252 39.8867C26.113 39.8867 20.607 42.6913 18.8984 45.2646C16.9368 48.2176 17.5276 49.8636 18.751 51.4033C19.447 52.2892 20.4812 53.1743 22.1475 54.1445C23.8138 55.1148 25.1213 55.5578 26.2393 55.7266C26.5083 55.7582 26.7654 55.7899 27.0195 55.8037L27.2725 55.7695C28.7911 55.7695 30.1831 55.0941 31.4697 52.5C32.8829 49.6948 32.5251 43.3881 31.9346 42.5439C31.6182 42.08 31.1538 41.8057 30.7109 41.8057C30.3313 41.8057 29.9728 41.9957 29.7197 42.4385L26.7246 47.6064L26.6816 48.8721C26.4074 49.3148 25.9649 49.5683 25.501 49.5684C25.2901 49.5684 25.058 49.5048 24.8682 49.3994C24.2565 49.0408 24.0451 48.2388 24.4248 47.585L25.501 46.9102L28.4961 41.7422C29.0442 40.7932 28.3273 39.9712 27.2939 39.8867H27.252ZM15.7979 26.5352C12.8241 26.5353 11.8117 27.8215 11.1367 29.5088C10.736 30.5634 10.4619 31.9136 10.4619 33.833C10.4619 35.7523 10.7149 37.1026 11.1367 38.1572C11.7701 39.8121 12.7404 41.0511 15.5039 41.127L15.7979 41.0889C16.0297 41.0889 16.2832 41.0674 16.5361 41.0674C19.6789 40.8775 24.9526 37.4183 25.3955 36.4902C25.8383 35.5622 25.5006 34.5293 24.3828 34.5293H18.4141L17.2959 35.1191C16.5577 35.1191 15.9463 34.5287 15.9463 33.8115C15.9464 33.0945 16.5577 32.5254 17.2959 32.5254L18.4141 33.1152H24.3828C25.5006 33.1152 25.8383 32.0823 25.3955 31.1543C24.9526 30.2051 19.6789 26.7455 16.5361 26.5557C16.2832 26.5346 16.0297 26.5352 15.7979 26.5352ZM51.9512 26.5137C51.7192 26.5137 51.466 26.5352 51.2129 26.5352C48.0703 26.725 42.7972 30.1829 42.3535 31.1113C41.9382 32.0012 42.2093 32.966 43.166 33.083L43.3457 33.1367H49.3145L50.4531 32.5459C51.1914 32.5459 51.8037 33.1159 51.8037 33.833C51.8036 34.55 51.1913 35.1191 50.4531 35.1191L49.3145 34.5293H43.3457C42.2278 34.5293 41.8901 35.5622 42.333 36.4902C42.7759 37.4394 48.0486 40.8988 51.1914 41.0889C51.4444 41.1099 51.6978 41.1094 51.9297 41.1094C54.9038 41.1094 55.9168 39.8232 56.5918 38.1357C56.9926 37.0811 57.2666 35.7309 57.2666 33.8115C57.2666 31.8922 57.0136 30.5419 56.5918 29.4873C55.9379 27.7789 54.925 26.5137 51.9512 26.5137ZM33.8535 27.7998C30.5209 27.7999 27.8213 30.5004 27.8213 33.833C27.8214 37.1655 30.521 39.8652 33.8535 39.8652C37.1861 39.8652 39.8856 37.1655 39.8857 33.833C39.8857 30.5004 37.1862 27.7998 33.8535 27.7998ZM33.832 30.9434C35.4139 30.9434 36.7011 32.2296 36.7012 33.8115C36.7012 35.3935 35.414 36.6807 33.832 36.6807C32.2503 36.6804 30.9639 35.3933 30.9639 33.8115C30.964 32.2298 32.2504 30.9436 33.832 30.9434ZM27.252 11.918C26.9145 11.918 26.5763 11.9598 26.2178 12.002C25.1 12.1707 23.8136 12.6139 22.1475 13.584C20.4811 14.5332 19.4265 15.4403 18.7305 16.3262C17.5071 17.8659 16.9163 19.5109 18.8779 22.4639C20.5331 24.9568 25.7514 27.6671 27.1113 27.834L27.2305 27.7998H27.2725C28.306 27.7154 29.023 26.9146 28.4746 25.9443L25.4795 20.7764L24.4043 20.1016C24.0247 19.4688 24.2351 18.6457 24.8467 18.2871C25.0575 18.1817 25.2687 18.1192 25.4795 18.1191C25.9435 18.1191 26.408 18.3716 26.6611 18.8145L26.7246 20.0801L29.7197 25.248C29.9728 25.6909 30.3313 25.8809 30.7109 25.8809C31.1538 25.8808 31.6182 25.6066 31.9346 25.1426C32.504 24.2981 32.8828 17.9916 31.4697 15.1865C30.1621 12.5927 28.7704 11.9181 27.252 11.918ZM40.4346 11.8965C38.9159 11.8965 37.524 12.5716 36.2373 15.166C34.8242 17.9713 35.1829 24.277 35.7734 25.1211C36.0504 25.5273 36.4401 25.788 36.8301 25.8467L36.9756 25.9023C37.3551 25.9023 37.7137 25.7122 37.9668 25.2695L40.9619 20.1016L41.0254 18.8359C41.2785 18.3931 41.7421 18.1397 42.2061 18.1396C42.438 18.1396 42.6491 18.2032 42.8389 18.3086C43.4504 18.6671 43.6615 19.4683 43.2822 20.1221L42.2061 20.7979L39.2109 25.9648C38.6626 26.9139 39.3797 27.7368 40.4131 27.8213H40.4561C41.596 27.8206 47.1003 25.0154 48.8086 22.4424C50.7699 19.4896 50.1794 17.8444 48.9561 16.3047C48.26 15.4188 47.2259 14.5328 45.5596 13.5625C43.8935 12.5924 42.5856 12.1492 41.4678 11.9805C41.1093 11.9383 40.7719 11.8965 40.4346 11.8965Z" fill="var(--fill-0, #001C6F)"/>
</svg>
