<svg preserveAspectRatio="none" width="100%" height="100%" overflow="visible" style="display: block;" viewBox="0 0 49.399 18.0764" fill="none" xmlns="http://www.w3.org/2000/svg">
<path id="Vector" d="M0 15.1656C0 13.879 4.34508 12.0439 13.0142 9.61825C13.6469 9.4706 14.7859 9.21749 16.389 8.9011C19.2787 8.09958 21.5989 7.4668 23.3707 6.98167C25.944 6.18015 29.15 5.1677 33.01 3.96542C36.87 2.76314 39.9495 1.79287 42.2908 1.07572C44.611 0.358574 46.2562 0 47.2265 0C48.6608 0 49.399 0.316388 49.399 0.97026C49.399 1.94052 49.1881 2.88969 48.7873 3.85996C48.3866 4.83022 47.8593 5.77939 47.2265 6.74965C46.5726 7.71991 46.1719 8.26832 46.0242 8.43706C21.62 14.8703 7.88866 18.0764 4.85132 18.0764C1.64523 18.0764 0.0421782 17.1061 0.0421782 15.1867L0 15.1656Z" fill="var(--fill-0, #050417)"/>
</svg>
