<svg preserveAspectRatio="none" width="100%" height="100%" overflow="visible" style="display: block;" viewBox="0 0 101.239 126.111" fill="none" xmlns="http://www.w3.org/2000/svg">
<path id="Vector" d="M13.0459 44.1357C13.3804 43.3093 14.0494 42.8764 15.053 42.8764C15.722 42.8764 17.8865 43.7225 21.5661 45.3754C29.7518 43.7028 37.1897 41.8728 43.8603 39.8658C43.6832 38.8622 43.6045 37.0323 43.6045 34.3562C43.0929 34.3562 41.8532 34.612 39.8461 35.1039C37.8391 35.5959 36.1665 35.8517 34.8285 35.8517C31.6605 35.8517 29.5747 34.6907 28.5712 32.3492C29.2402 32.1917 31.2866 31.8966 34.7104 31.4637C38.1342 31.0504 40.9284 30.4208 43.0929 29.5747V28.8269C43.0929 22.9828 41.5974 17.8865 38.5868 13.5379C35.5762 9.18922 34.0807 4.68315 34.0807 0C38.7442 2.18416 43.5061 3.89604 48.3663 5.13569C53.2069 6.39503 56.2962 7.35919 57.6342 8.00853C58.9723 8.67756 59.6413 10.0156 59.6413 12.0227C59.6413 13.0262 59.1887 13.7739 58.2639 14.2855C57.3391 14.7775 56.3355 15.2497 55.2533 15.663C54.1711 16.0762 53.0888 17.2962 52.0066 19.3032C50.9243 21.3103 50.216 24.0651 49.8815 27.5676C52.3804 26.8986 54.3088 25.9344 55.6468 24.675C56.9849 23.4157 57.9884 22.8058 58.6574 22.8058C60.1529 22.8058 61.7861 23.3567 63.5374 24.4389C65.2886 25.5212 66.1741 26.4853 66.1741 27.3315C66.1741 28.1776 65.4657 28.827 64.049 29.3386C62.6322 29.8305 60.3693 30.3814 57.28 30.9717C54.1907 31.5621 51.6524 32.1917 49.6453 32.8607C49.6453 33.5297 49.5666 34.5333 49.3895 35.8713C49.2321 37.2094 49.1337 38.1146 49.1337 38.6262L70.4243 34.8678C71.9198 34.8678 74.0056 36.3436 76.6817 39.2558C79.3578 42.1877 80.6958 44.6473 80.6958 46.6544C80.6958 48.3269 78.8461 49.4092 75.1862 49.9011C74.0056 53.0691 72.1756 56.2568 69.6766 59.4248C67.1776 62.5928 65.9183 64.9344 65.9183 66.4495C65.9183 69.1256 65.1706 70.4637 63.6554 70.4637C62.6519 70.4637 61.3926 69.8734 59.8971 68.7124C57.7326 68.8895 56.0601 69.2044 54.8794 69.716C59.3855 75.4026 64.9344 79.83 71.5459 82.998C78.1378 86.166 84.1983 88.8421 89.7079 91.0262C95.2175 93.1907 99.0545 95.9455 101.239 99.2906C98.7397 98.9561 96.1817 98.2084 93.604 97.0278C91.0066 95.8668 89.216 95.2765 88.2124 95.2765C87.5434 95.2765 85.8709 96.0636 83.1948 97.6575C80.5187 99.2513 78.2755 100.038 76.4259 100.038C74.0843 100.038 71.7427 98.8381 69.4011 96.3981C67.0596 93.9778 63.9309 89.7276 59.9955 83.6277C56.0601 77.5278 53.0101 73.0611 50.8456 70.2276C50.5111 70.4047 49.8421 70.4833 48.8386 70.4833C48.8386 72.333 48.7599 74.6549 48.5828 77.5081C48.4057 80.3416 48.327 82.5257 48.327 84.0212C48.327 88.7043 48.9566 94.7649 50.216 102.183C51.4753 109.621 52.105 113.753 52.105 114.58C52.105 122.273 50.5111 126.111 47.3431 126.111C45.4935 126.111 43.7422 123.769 42.0893 119.105C40.4168 114.422 39.5903 110.251 39.5903 106.571C39.5903 104.899 35.4975 98.4642 27.3118 87.268C18.2997 94.6272 11.1963 98.2871 6.02119 98.2871C3.18769 98.2871 1.18063 98.0313 0 97.5393C11.1963 91.8527 19.3819 86.8547 24.557 82.5061L23.5535 79.2397L25.8164 80.991C28.827 78.492 31.4834 74.891 33.8249 70.2079C32.1524 70.0505 30.5782 69.0469 29.0631 67.1973L29.1811 66.3118L29.555 65.4264C29.555 65.0919 28.335 63.5177 25.9147 60.6645C23.4945 57.831 20.8971 54.7023 18.1423 51.2785C15.3875 47.8547 13.6756 45.4738 13.0066 44.1357H13.0459ZM43.8603 43.1322C37.0126 44.4702 30.7356 46.3986 25.0686 48.8976C27.9021 51.7311 29.5747 53.5807 30.0863 54.4072C31.5817 53.5807 33.9627 52.9511 37.2291 52.5182C40.4955 52.105 42.778 51.7311 44.1161 51.3966C44.1161 50.5701 44.0767 49.2321 43.998 47.3824C43.9193 45.5525 43.8799 44.1357 43.8799 43.1322H43.8603ZM44.3522 70.6998C44.0177 70.6998 43.388 70.6605 42.4829 70.5818C41.558 70.503 40.8497 70.4637 40.3577 70.4637C38.3507 73.9662 34.7498 78.9051 29.5747 85.2412C30.4011 86.0873 31.6211 87.504 33.2149 89.4914C34.8088 91.4985 36.2255 93.053 37.4849 94.1155C38.7442 95.1978 39.7871 95.7488 40.6135 95.7488C42.109 95.7488 43.3683 87.4057 44.3719 70.6998H44.3522ZM44.0964 56.1584C38.4097 56.4929 34.6514 57.162 32.8214 58.1655C33.9824 60.8416 35.4188 63.0061 37.0717 64.6786C37.8981 64.8557 39.1574 64.9738 40.83 65.0525C42.5025 65.1312 43.6635 65.1706 44.3325 65.1706C44.3325 64.0096 44.2932 62.4157 44.2144 60.4087C44.1357 58.4016 44.0964 56.9848 44.0964 56.1584ZM68.1418 42.6206C68.1418 41.2826 66.1347 40.6135 62.1206 40.6135C58.1065 40.6135 53.7578 41.2038 49.0944 42.3648C48.9173 43.5454 48.7992 45.0802 48.7205 47.0086C48.6418 48.9369 48.6024 50.2159 48.6024 50.885C50.944 50.5504 52.8133 49.8814 54.2301 48.8779C55.6468 47.8744 57.28 47.3824 59.11 47.3824C59.779 47.3824 60.4087 47.5595 60.9793 47.8744C61.5696 48.2089 62.2387 48.7205 62.9864 49.3698C63.7341 50.0389 64.3638 50.5308 64.8754 50.8653C67.0399 47.0283 68.1418 44.2735 68.1418 42.6009V42.6206ZM63.1241 54.3875C61.7861 53.7185 60.8613 53.384 60.3693 53.384C59.5232 53.384 57.6933 53.7185 54.8598 54.3875C52.0066 55.0565 50.0192 55.4697 48.8386 55.6468C48.6615 56.493 48.5828 57.9097 48.5828 59.9167C48.5828 61.9238 48.6615 63.5177 48.8386 64.6786C51.3376 64.6786 54.4269 64.2654 58.1065 63.4193C58.5984 62.7502 59.4445 61.2942 60.6055 59.0313C61.7664 56.7684 62.6125 55.2336 63.1045 54.4072L63.1241 54.3875Z" fill="var(--fill-0, #050417)"/>
</svg>
