<svg preserveAspectRatio="none" width="100%" height="100%" overflow="visible" style="display: block;" viewBox="0 0 81.8606 86.7119" fill="none" xmlns="http://www.w3.org/2000/svg">
<path id="Vector" d="M29.8461 58.0681C29.1922 58.0681 27.9267 58.4689 25.9862 59.2704L25.0159 61.1898C24.2144 62.4765 23.4972 63.4467 22.8434 64.0795C20.4388 62.6452 19.2365 57.9837 19.2365 50.1162C19.2365 44.0204 19.5529 39.612 20.2068 36.87C26.1549 35.8997 32.6936 34.4654 39.8441 32.5249C46.9945 30.6055 51.445 29.6352 53.2168 29.6352C56.5916 29.6352 58.279 30.7531 58.279 33.01L56.5916 39.2745C55.4737 43.4509 54.9042 47.796 54.9042 52.2887C54.9042 54.862 55.0519 57.583 55.3893 60.4727C58.4267 60.6414 61.7382 61.1265 65.2607 61.907C68.7832 62.7085 72.4322 64.3115 76.2078 66.7161C79.9834 69.1207 81.8606 71.926 81.8606 75.1532C81.8606 77.8952 80.806 79.9623 78.7389 81.4177C76.6508 82.852 73.9931 83.5902 70.787 83.5902C69.9855 83.5902 68.1715 84.1175 65.3662 85.1511C62.5608 86.1846 60.4305 86.7119 58.9751 86.7119C56.8869 86.7119 53.0691 85.6362 47.5429 83.4637C41.9955 81.2911 38.1145 79.4982 35.8575 78.0429C35.056 78.3592 34.2123 78.8866 33.3264 79.6037C32.4405 80.3209 31.7656 80.6794 31.2804 80.6794C30.4789 80.6794 27.9056 80.0467 23.5816 78.76C23.5816 78.9288 23.5394 79.4139 23.455 80.1943C23.3707 80.9958 23.2863 81.6075 23.223 82.0083L22.991 83.4426L22.4004 84.7714L21.1981 85.2565C20.713 85.2565 20.1857 84.9402 19.6373 84.2863C19.0678 83.6535 18.5826 82.8098 18.1819 81.7552C17.7811 80.7216 17.3804 79.7092 16.9796 78.7389C16.5788 77.7687 16.2203 76.7351 15.9039 75.6172C15.5875 74.4993 15.3344 73.7821 15.1867 73.4447H12.297C9.23859 73.4447 6.43327 72.9595 3.85996 72.0103C1.28666 71.0401 0 69.6902 0 67.9184L0.126567 67.2012L0.253118 66.231C1.70851 66.231 3.71231 66.3997 6.26452 66.7161C8.83783 67.0325 10.8416 67.2012 12.2759 67.2012H13.2462C13.0775 65.9146 12.7611 64.1006 12.2759 61.7804C11.7908 59.4602 11.39 57.5197 11.0736 56.001C10.7573 54.4824 10.5885 53.3223 10.5885 52.4996C10.5885 52.1833 10.9049 51.6981 11.5588 51.0653C13.4782 51.3817 14.8914 52.3098 15.7773 53.8285C16.6632 55.3471 17.4226 57.4775 18.0553 60.2196C18.6881 62.9616 19.5107 65.1974 20.4599 66.9692C22.6957 66.9692 25.7541 66.3364 29.6141 65.0498C29.6141 64.5646 29.6563 63.4467 29.7407 61.675C29.825 59.9032 29.8672 58.7009 29.8672 58.0681H29.8461ZM59.9454 25.0792C55.1362 25.0792 47.9858 26.4924 38.5152 29.2977C29.0446 32.103 22.7801 33.5162 19.7217 33.5162C10.0823 33.5162 3.81778 31.7445 0.928082 28.222C3.81778 26.4502 5.99033 25.5643 7.42463 25.5643C9.02767 25.5643 11.4744 25.9651 14.7649 26.7666C18.0553 27.5681 20.8185 27.9689 23.0754 27.9689C26.2815 27.9689 28.454 27.6525 29.5719 26.9986C30.6898 26.3658 31.2593 24.9104 31.2593 22.6535C31.2593 22.1684 30.8164 21.8098 29.9305 21.5778C29.0446 21.3458 28.454 20.9661 28.1165 20.5021C28.1165 19.8693 28.2431 19.3842 28.4751 19.0678L29.6774 17.7389C30.2469 17.1694 30.6687 16.5788 31.0062 15.925C31.3226 15.4398 31.9343 14.4485 32.8202 12.9087C33.7061 11.39 34.4232 10.3354 34.9927 9.787C35.5622 9.2175 36.2372 8.94329 37.0387 8.94329C38.1566 8.94329 38.7261 9.74481 38.7261 11.3479C38.7261 12.6345 38.5996 13.9633 38.3676 15.3133C38.1356 16.6843 37.7137 18.203 37.1653 19.8904C36.5958 21.5778 36.2372 22.9066 36.0896 23.8558C36.406 24.6573 36.9754 25.0581 37.777 25.0581C38.7472 25.0581 40.1393 23.223 41.9955 19.5107C43.8305 15.8195 44.7586 13.1618 44.7586 11.5588C44.7586 10.5885 44.2313 9.68154 43.1978 8.79564C42.1431 7.90975 41.4682 7.23478 41.1518 6.74965C42.4384 3.85996 45.2438 1.60304 49.5889 0C52.7949 1.11791 54.398 4.09198 54.398 8.90111C54.398 10.5041 53.723 12.4236 52.352 14.6805C50.981 16.9374 50.2216 19.0256 50.074 20.945C51.3606 20.7763 53.1113 20.4599 55.3683 19.9748C57.6041 19.4896 59.861 19.1311 62.1179 18.899C64.3537 18.667 66.7794 18.5405 69.3316 18.5405C74.4782 18.5405 77.4312 19.11 78.2327 20.2279C77.1148 22.4848 75.343 24.1722 72.9384 25.2901C70.8503 25.1425 66.5052 25.0581 59.9242 25.0581L59.9454 25.0792ZM21.4091 72.0314C22.0418 73.6345 22.6113 74.9211 23.0965 75.8914C25.3323 75.4063 27.9056 74.5204 30.7953 73.2337C29.9938 72.2635 29.593 70.9979 29.593 69.3738L21.4091 72.0314ZM25.0159 40.2448V44.5899H25.501L25.9862 44.8219L30.3313 44.1048C30.3313 42.8181 30.4789 41.2151 30.8164 39.2956L25.037 40.2659L25.0159 40.2448ZM29.825 48.1967C28.8548 48.3655 27.8212 48.5131 26.7033 48.6819C25.7331 48.6819 25.2268 48.7662 25.1425 48.9139L25.0159 49.8842V50.8544C25.0159 51.1708 25.0581 51.7403 25.1425 52.5418C25.2268 53.3434 25.269 53.9129 25.269 54.2292C26.0705 54.2292 27.5892 54.0816 29.8461 53.7441V48.1967H29.825ZM35.8364 38.0723C35.8364 38.8738 35.7099 39.7597 35.4779 40.7299C35.2458 41.7002 35.1193 42.5017 35.1193 43.1345C36.7223 42.8181 38.5785 42.4595 40.6667 42.0588C42.7548 41.658 44.2735 41.3838 45.2438 41.2151C45.2438 40.4135 45.286 39.4433 45.3703 38.3254C45.4547 37.2075 45.4969 36.3216 45.4969 35.6677C44.0626 35.9841 42.3752 36.427 40.4346 36.9965C38.5152 37.566 36.9755 37.9246 35.8575 38.0723H35.8364ZM35.1193 47.2265V52.5207C37.3551 52.352 40.5823 51.6348 44.7586 50.3482C44.7586 47.9436 44.843 46.0875 44.9907 44.8008C41.4682 45.9187 38.1566 46.7203 35.1193 47.2054V47.2265ZM35.6044 56.8658V63.3624C39.1269 62.7296 42.2697 61.8437 44.9907 60.7047C44.9907 57.9837 44.9063 55.8956 44.7586 54.4402C43.9571 54.7566 42.5439 55.1573 40.5401 55.6424C38.5363 56.1276 36.8911 56.5283 35.6044 56.8447V56.8658ZM35.8364 67.7074C35.8364 70.2807 36.2372 71.5674 37.0387 71.5674C37.6715 71.5674 38.3676 71.4409 39.0847 71.2088C39.8019 70.9768 40.7721 70.5971 41.9744 70.1331C43.1767 69.648 44.3368 69.2472 45.4758 68.9308C45.1594 67.159 45.075 65.8935 45.2438 65.0709C44.2735 65.2396 41.1518 66.1255 35.8575 67.7285L35.8364 67.7074ZM56.0643 64.8178C56.0643 65.1341 56.1909 65.8724 56.4229 66.9903C56.6549 68.1082 56.7815 69.0785 56.7815 69.88C56.7815 70.6815 56.5494 71.5674 56.0643 72.5377C53.0059 74.6258 50.0529 75.6594 47.1632 75.6594C46.9945 75.5117 46.7624 75.0266 46.446 74.2251C46.1296 73.4236 45.8765 72.8541 45.7289 72.5377C44.7586 72.8541 43.6829 73.4236 42.4806 74.2251C41.2784 75.0266 40.2659 75.5961 39.4644 75.9125C40.0972 76.8828 41.7213 77.8741 44.2735 78.9287C46.8468 79.9834 48.8506 80.4896 50.2849 80.4896C51.2552 80.4896 52.1622 80.2787 53.0481 79.8779C53.9339 79.4772 54.8831 78.8866 55.9377 78.0639C56.9713 77.2624 57.815 76.6929 58.4689 76.3765C59.2704 76.0601 60.8312 75.807 63.1725 75.6594C65.4927 75.5117 67.2645 75.0688 68.4668 74.3306C69.6691 73.6134 70.2808 72.3689 70.2808 70.5971C70.2808 69.3105 68.5934 68.066 65.2185 66.8638C61.8437 65.6615 58.7853 64.9865 56.0643 64.8178Z" fill="var(--fill-0, #B60303)"/>
</svg>
