<svg preserveAspectRatio="none" width="100%" height="100%" overflow="visible" style="display: block;" viewBox="0 0 112.213 110.441" fill="none" xmlns="http://www.w3.org/2000/svg">
<path id="Vector" d="M89.8759 80.0888C89.1587 81.8817 85.6784 82.7676 79.3927 82.7676C78.4858 82.7676 77.1148 82.7254 75.2375 82.641C73.3603 82.5567 71.8837 82.5145 70.808 82.5145C70.4494 82.5145 69.7746 82.5567 68.7832 82.641C67.7918 82.7254 67.0325 82.7676 66.5052 82.7676C65.4294 92.6179 64.6279 97.9965 64.0794 98.8823C62.8139 100.675 59.8188 102.953 55.073 105.737C50.3271 108.522 47.1421 109.893 45.539 109.893C44.6321 109.893 43.7883 109.534 42.9868 108.817C42.1853 108.1 41.7845 107.298 41.7845 106.391C41.7845 105.316 43.0712 103.881 45.6867 102.088C48.2811 100.296 51.0654 97.8488 54.0183 94.706C56.9713 91.5843 58.722 87.8509 59.2493 83.5691C58.5321 83.759 56.6549 83.9699 53.6176 84.2441C50.5802 84.5183 48.3443 84.8347 46.91 85.1932C45.8343 87.3447 44.632 89.8969 43.2821 92.8499C41.9322 95.8029 40.8986 98.0387 40.2025 99.5573C39.4854 101.076 38.6418 102.637 37.6504 104.261C36.6591 105.864 35.6466 107.045 34.5708 107.762C33.4951 108.48 32.2507 108.838 30.8164 108.838C29.5719 108.838 28.2219 108.395 26.7876 107.488C25.3533 106.602 24.1933 105.653 23.2863 104.662C22.3793 103.67 21.1348 102.194 19.5318 100.232C17.9287 98.2707 16.7476 96.9208 16.0515 96.2036C15.1446 96.5622 13.1829 96.7309 10.1456 96.7309C7.27696 96.7309 4.95678 93.6092 3.1639 87.3236C7.82538 89.2852 10.9471 90.2766 12.5712 90.2766C14.0055 90.2766 19.11 88.315 27.8845 84.3707C36.659 80.4263 41.4893 78.0218 42.3963 77.1148C42.2064 75.6805 40.6877 73.993 37.8402 72.0103C36.0473 72.3689 33.7271 73.8454 30.8585 76.4398C27.9899 79.0342 25.7541 80.3419 24.1511 80.3419C21.9996 80.3419 20.481 79.6248 19.5951 78.1905C20.8396 77.4733 23.7082 75.5117 28.1798 72.2845C32.6515 69.0574 36.2372 66.9059 38.9159 65.8302C40.3502 64.0373 41.0674 61.8859 41.0674 59.3758C40.3503 59.0173 39.4643 58.8485 38.3886 58.8485C36.7856 58.8485 34.5287 59.7555 31.6812 61.5273C25.9439 68.3402 20.945 73.2126 16.6421 76.1656C12.3392 79.1185 6.79184 81.2278 0 82.4723C14.5118 70.8291 25.2479 60.4515 32.2296 51.3184C31.7023 50.2427 29.2344 47.6061 24.8472 43.3876C20.4599 39.169 18.1819 35.8153 17.992 33.3053C20.8606 33.6638 24.2565 35.3302 28.2008 38.2832C32.1451 41.2361 34.9927 43.704 36.7855 45.6656C41.8056 39.5698 45.2859 33.7483 47.2687 28.2009C45.307 28.3907 42.5228 29.361 38.937 31.1538C35.3513 32.9467 32.5881 33.8326 30.6054 33.8326C29.1711 33.8326 28.0954 33.4741 27.3783 32.7569C27.547 32.5882 28.7704 31.6811 31.0062 30.0781C33.242 28.4751 35.752 26.6822 38.5363 24.6995C41.3205 22.7379 43.5141 21.0293 45.1172 19.595C46.1929 18.5193 47.3952 17.0851 48.7452 15.2922C50.0951 13.4993 51.2973 12.065 52.373 10.9893C53.4488 9.91353 54.5246 9.3862 55.6003 9.3862C56.676 9.3862 57.7517 9.78697 58.8274 10.5885C59.9031 11.39 60.4305 12.3392 60.4305 13.4149C60.4305 13.6047 59.7976 15.3766 58.5532 18.7936C59.0805 19.7006 60.789 21.7465 63.6576 24.9737C65.2606 22.8223 67.2434 18.3506 69.5636 11.5377C71.8838 4.74585 73.5079 0.885892 74.3938 0C75.2797 0.358575 76.4398 1.56086 77.8741 3.62794C79.3084 5.69502 80.0255 7.44567 80.0255 8.85888C80.0255 9.3862 79.6247 10.019 78.8232 10.7362C78.0217 11.4533 77.4312 12.1704 77.0726 12.8876C74.9211 18.435 71.6939 24.2565 67.4121 30.3523C70.4495 35.0138 72.3267 37.6926 73.0438 38.4097C76.7983 34.6552 79.224 30.8796 80.2997 27.1251C81.9028 27.315 83.4215 28.1165 84.8558 29.5508C86.2901 30.9851 87.0072 32.335 87.0072 33.5795C87.0072 34.824 86.5643 35.4568 85.6573 35.4568C84.5816 35.4568 83.5058 35.8153 82.4301 36.5324C81.3544 37.2496 80.2364 38.241 79.0763 39.4855C77.9162 40.751 76.9671 41.6369 76.25 42.1642C81.6286 49.3357 86.1846 54.7776 89.9391 58.5532C93.6936 62.3077 96.288 64.5013 97.7223 65.1341C99.1566 65.7669 101.034 67.6863 103.354 70.9135C105.674 74.1407 108.627 79.4138 112.213 86.7541C110.42 86.7541 108.142 86.0369 105.358 84.6026C102.574 83.1683 99.1354 81.2067 95.0223 78.6967C90.9093 76.1867 87.3236 74.225 84.2863 72.7907C83.2105 71.1877 81.8605 68.0871 80.2575 63.5311C78.6544 58.9751 75.7016 53.1957 71.3987 46.214C69.9644 46.9312 68.4456 47.2897 66.8426 47.2897C68.6355 44.2524 69.5214 42.6282 69.5214 42.4595C64.6912 33.1576 60.3039 26.4291 56.3596 22.316C53.8496 27.3361 48.2178 36.7223 39.4432 50.5169C40.519 51.5926 41.7635 52.12 43.1978 52.12C43.9149 52.12 44.9062 51.7192 46.1507 50.9177C47.3952 50.1161 48.3866 49.7154 49.1037 49.7154C51.2552 49.7154 52.6894 50.4325 53.4066 51.8669C53.048 52.584 52.4996 53.2167 51.8035 53.7441C51.0864 54.2714 50.2849 54.7776 49.3779 55.2206C48.4709 55.6635 47.7748 56.0643 47.2264 56.4229C46.1507 58.2157 45.7921 60.093 46.1507 62.0546C49.188 61.5273 52.141 60.3461 55.0096 58.5532C57.3298 50.1372 58.511 42.9868 58.511 37.0598C58.511 35.6255 58.4267 34.2967 58.2369 33.0311C62.7085 35.8997 64.9443 39.1269 64.9443 42.6915C64.9443 43.9571 64.8178 44.9273 64.5436 45.6445C64.2693 46.3616 63.9108 47.0788 63.4678 47.796C63.0249 48.5131 62.3077 50.1794 61.3163 52.7738C60.325 55.3682 59.2071 58.7219 57.9627 62.835C58.8485 63.9107 59.5656 64.4381 60.114 64.4381C61.3585 64.4381 63.3835 63.7209 66.1466 62.2866C68.9308 60.8523 71.2932 60.1351 73.2548 60.1351C75.0477 60.1351 76.2921 61.4851 77.0093 64.1638C76.6507 64.5224 75.343 64.9654 73.1072 65.5138C70.8713 66.0411 69.2049 66.6739 68.1292 67.391C67.6019 70.6182 67.2223 74.0141 67.0536 77.5999C68.8465 77.5999 70.8081 77.5155 72.9595 77.3257C75.111 77.157 76.3554 77.0515 76.7139 77.0515C77.4311 77.0515 78.2748 76.7351 79.2662 76.1234C80.2365 75.4906 81.1013 75.2797 81.8184 75.4484C85.5729 76.3554 88.2728 77.8741 89.8759 80.0045V80.0888ZM18.1608 94.8537C21.0294 97.7223 24.7839 99.1566 29.4453 99.1566C31.2382 99.1566 33.474 97.2794 36.1528 93.5249C38.8316 89.7704 40.1814 87.176 40.1814 85.7417C40.1814 84.6659 39.6542 83.78 38.5785 83.0629C29.6352 87.1759 22.8223 91.1203 18.1608 94.8748V94.8537ZM50.9176 72.2845C50.9176 71.7572 51.0442 71.1244 51.3184 70.4073C51.5926 69.6901 51.9512 68.6566 52.3942 67.3277C52.8371 65.9778 53.1535 64.8599 53.3434 63.974C48.6819 64.6912 44.8429 66.5684 41.7845 69.6058C42.1431 71.2088 42.9446 72.4322 44.2102 73.2337C45.4547 74.0352 46.1719 74.6258 46.3617 74.9844C47.796 78.0217 48.5974 79.8146 48.7873 80.363C49.6732 80.1943 53.6176 79.5615 60.5992 78.4858C61.3164 74.9 61.6749 71.5885 61.6749 68.5512C59.3547 68.5512 57.4775 68.2769 56.0431 67.7496C53.5331 70.6182 51.8247 72.1369 50.9388 72.3056L50.9176 72.2845ZM72.6642 92.428C73.7399 91.3523 75.9757 90.825 79.3716 90.825C83.4847 90.825 87.4291 91.9007 91.1836 94.0522C94.9381 96.2036 96.8153 98.6082 96.8153 101.308C96.8153 104.008 95.4231 106.18 92.66 107.889C89.8757 109.597 86.9651 110.441 83.9277 110.441L83.2527 110.315L82.5778 110.188C81.6919 108.944 80.6161 106.792 79.3505 103.734C78.106 100.696 75.8491 96.9419 72.6431 92.4491L72.6642 92.428Z" fill="var(--fill-0, #23542E)"/>
</svg>
