<svg preserveAspectRatio="none" width="100%" height="100%" overflow="visible" style="display: block;" viewBox="0 0 91.964 21.7044" fill="none" xmlns="http://www.w3.org/2000/svg">
<path id="Vector" d="M15.6297 14.2165C20.4388 14.2165 29.361 11.8541 42.3541 7.10823C55.3682 2.38347 63.6998 0 67.3911 0C73.0017 0 78.5069 1.07572 83.8855 3.24827C89.2642 5.42081 91.964 7.86756 91.964 10.5885C91.964 12.0228 91.2047 13.436 89.686 14.8071C88.1673 16.1781 86.4377 16.853 84.5183 16.853C83.8644 16.853 80.7849 15.8195 75.2375 13.7313C69.6902 11.6432 64.7545 10.6096 60.4305 10.6096C54.6511 10.6096 45.8976 12.4658 34.1912 16.157C22.4637 19.8482 15.0813 21.7044 12.0439 21.7044C6.41217 21.7044 2.40456 20.4177 0 17.8444C0.485131 16.389 2.97407 14.9547 7.4668 13.4993C8.26833 13.4993 9.55498 13.6259 11.3268 13.8579C13.0985 14.0899 14.5329 14.2165 15.6508 14.2165H15.6297Z" fill="var(--fill-0, #050417)"/>
</svg>
