<svg preserveAspectRatio="none" width="100%" height="100%" overflow="visible" style="display: block;" viewBox="0 0 105.843 99.3465" fill="none" xmlns="http://www.w3.org/2000/svg">
<path id="Vector" d="M0 93.7569C0 92.3226 1.1179 90.3188 3.35373 87.7033C5.58955 85.1089 8.45817 80.7216 11.9385 74.5415C15.4398 68.3613 18.3295 60.8102 20.6708 51.8458C14.4063 47.7327 11.0104 43.4298 10.4619 38.9582C14.0477 40.5612 18.0764 41.6369 22.5481 42.1853C22.7168 40.3924 23.2652 38.684 24.1511 37.0809C24.6784 38.3465 25.037 40.3925 25.2268 43.2611C30.2469 44.8641 32.7569 46.8468 32.7569 49.167C32.7569 51.677 29.8883 52.9215 24.1722 52.9215C23.0964 58.6587 22.0207 63.8053 20.945 68.3613C19.8693 72.9173 19.11 76.1024 18.667 77.8953C18.2241 79.6881 17.992 80.9326 17.992 81.6497C17.992 83.084 18.1608 84.0754 18.5194 84.6027C20.3122 84.434 23.5816 82.852 28.3274 79.899C33.0733 76.946 36.7856 74.3938 39.4644 72.2424C40.5401 70.4495 41.0674 66.6106 41.0674 60.7047C41.0674 59.4602 41.0252 57.3088 40.9409 54.2503C40.8565 51.213 40.8143 48.9772 40.8143 47.5429C40.8143 42.5228 40.3713 38.4519 39.4644 35.3302C38.5574 32.1874 37.5449 30.0993 36.3848 29.0235C35.2247 27.9478 34.1912 26.7877 33.3053 25.5432C32.3983 24.2988 31.9554 22.8645 31.9554 21.2403C31.9554 19.2787 32.6725 17.5702 34.1068 16.1359C36.9754 17.2116 39.9706 18.1397 43.1134 18.9623C46.2351 19.7639 48.3022 20.3966 49.2935 20.8396C50.2638 21.2825 51.3184 22.1473 52.3731 23.3918C53.4488 24.6573 54.3347 26.5346 55.0519 29.0235C52.0145 30.9851 50.1162 34.0435 49.4201 38.1566C48.7029 42.2697 48.1756 51.5927 47.817 66.0833C49.6099 65.0076 51.7192 63.4889 54.1238 61.5062C56.5494 59.5446 58.1946 58.279 59.1016 57.7517C59.1016 53.4488 59.4602 48.1335 60.1774 41.7846C60.8945 35.4357 61.2531 31.0906 61.2531 28.7493C61.2531 27.315 61.1687 26.0283 60.9789 24.8472C60.7891 23.6871 60.5359 22.6957 60.1774 21.8942C59.8188 21.0927 59.5024 20.3755 59.2282 19.7428C58.954 19.11 58.5111 18.5404 57.8783 17.992C57.2455 17.4647 56.8025 17.0429 56.5283 16.7898C56.2541 16.5156 55.7268 16.157 54.9253 15.7141C54.1238 15.2711 53.6175 14.9547 53.4488 14.7649C54.166 12.6134 55.094 10.7784 56.2752 9.25971C57.4353 7.74104 58.9962 6.13798 60.9789 4.42947C62.9405 2.72097 64.4592 1.24447 65.5349 0C67.138 1.26556 69.3316 3.71231 72.1158 7.38243C74.9001 11.0526 76.2711 13.9634 76.2711 16.1148C76.2711 16.832 75.7648 17.5913 74.7946 18.3928C73.8032 19.1943 72.7697 19.9958 71.7151 20.8184C70.6604 21.6411 69.6058 23.4129 68.6355 26.1971C67.6442 28.9813 67.159 32.5038 67.159 36.8067V52.3731C68.4035 51.4872 70.112 50.4115 72.2634 49.1459C74.4149 47.9015 75.9758 46.9523 76.9671 46.3195C77.9374 45.6868 78.8443 44.7164 79.6459 43.3665C80.4474 42.0166 80.8481 40.4558 80.8481 38.6629L80.7216 37.5871L80.595 36.5114C81.6708 35.4357 83.548 34.9084 86.2268 34.9084C88.7368 34.9084 91.3312 35.7521 94.01 37.4606C96.6888 39.1691 98.0387 41.1729 98.0387 43.4931C98.0387 44.5688 96.9208 45.3704 94.6849 45.9188C92.4491 46.4672 88.6947 47.5851 83.4004 49.2725C78.1272 50.981 72.8751 53.4277 67.6863 56.6549V58.8064C67.6863 69.9011 68.6566 76.9882 70.6393 80.0256C72.6009 83.084 77.0937 84.5816 84.0753 84.5816C87.6611 84.5816 91.289 84.1808 94.9591 83.3793C98.6293 82.5778 101.097 82.1771 102.342 82.1771C104.662 82.1771 105.843 83.084 105.843 84.8558C105.843 92.3859 95.7185 96.1404 75.4907 96.1404C70.8292 96.1404 67.0325 95.1491 64.0795 93.1874C61.1265 91.2258 59.65 88.5259 59.65 85.13C59.65 83.8856 59.6922 82.3036 59.7766 80.4263C59.861 78.5491 59.9031 77.0726 59.9031 75.9969C59.9031 74.0352 59.7766 71.483 59.5024 68.3402C59.2282 65.1974 59.1016 62.9194 59.1016 61.4851C55.7057 63.9951 51.9301 67.0325 47.817 70.6183C47.817 71.3354 47.9014 72.2213 48.0912 73.297C48.26 74.3727 48.3655 75.2587 48.3655 75.9758C48.3655 78.296 47.6062 80.3209 46.0875 82.0294C44.5688 83.7379 43.2611 84.666 42.1853 84.8558C41.658 84.8558 41.0252 84.5394 40.308 83.9066C39.5909 83.2738 39.2324 82.5989 39.2324 81.8817C39.2324 80.9958 38.5996 79.7303 37.3551 78.1272C33.9592 80.4474 30.1414 83.5902 25.9439 87.5346C21.7254 91.4789 18.0553 94.4319 14.9336 96.3935C11.7908 98.3551 8.43706 99.3465 4.8724 99.3465C1.64522 99.3465 0.0421622 97.4692 0.0421622 93.7147L0 93.7569Z" fill="var(--fill-0, #050417)"/>
</svg>
