<svg preserveAspectRatio="none" width="100%" height="100%" overflow="visible" style="display: block;" viewBox="0 0 93.3985 140.583" fill="none" xmlns="http://www.w3.org/2000/svg">
<g id="Group 4">
<path id="Vector" d="M0 4.21853C0 1.41321 4.19738 0 12.5923 0C20.9871 0 25.1846 1.41321 25.1846 4.21853C25.1846 6.49654 23.3706 8.50034 19.7427 10.251V16.8741C23.3706 17.9499 25.1846 19.5529 25.1846 21.7043C25.1846 23.8558 23.3706 25.4589 19.7427 26.5135V33.1366C23.3706 34.8873 25.1846 36.8911 25.1846 39.1691C25.1846 41.9744 20.9871 43.3876 12.5923 43.3876C4.19738 43.3876 0 41.9744 0 39.1691C0 36.8911 1.814 34.8873 5.44194 33.1366V26.5135C1.814 25.4378 0 23.8347 0 21.7043C0 19.574 1.814 17.9499 5.44194 16.8741V10.251C1.814 8.52144 0 6.49654 0 4.21853ZM0 52.816C0 50.0107 4.19738 48.5975 12.5923 48.5975C20.9871 48.5975 25.1846 50.0107 25.1846 52.816C25.1846 55.094 23.3706 57.0978 19.7427 58.8485V65.4716C23.3706 66.5473 25.1846 68.1504 25.1846 70.3018C25.1846 72.4533 23.3706 74.0563 19.7427 75.111V81.7341C23.3706 83.4848 25.1846 85.4886 25.1846 87.7666C25.1846 90.5719 20.9871 91.9851 12.5923 91.9851C4.19738 91.9851 0 90.5719 0 87.7666C0 85.4886 1.814 83.4848 5.44194 81.7341V75.111C1.814 74.0352 0 72.4322 0 70.3018C0 68.1715 1.814 66.5473 5.44194 65.4716V58.8485C1.814 57.1189 0 55.094 0 52.816ZM0 101.413C0 98.6082 4.19738 97.195 12.5923 97.195C20.9871 97.195 25.1846 98.6082 25.1846 101.413C25.1846 103.692 23.3706 105.695 19.7427 107.446V114.069C23.3706 115.145 25.1846 116.748 25.1846 118.899C25.1846 121.051 23.3706 122.654 19.7427 123.708V130.332C23.3706 132.061 25.1846 134.086 25.1846 136.364C25.1846 139.169 20.9871 140.583 12.5923 140.583C4.19738 140.583 0 139.169 0 136.364C0 134.086 1.814 132.082 5.44194 130.332V123.708C1.814 122.633 0 121.03 0 118.899C0 116.769 1.814 115.145 5.44194 114.069V107.446C1.814 105.716 0 103.692 0 101.413ZM9.34403 4.21853V15.8617C10.0612 15.7351 11.158 15.6718 12.5923 15.6718C14.0266 15.6718 15.1235 15.7351 15.8406 15.8617V4.21853C15.1235 4.09198 14.0266 4.00759 12.5923 4.00759C11.158 4.00759 10.0612 4.07088 9.34403 4.21853ZM9.34403 25.501C9.63933 25.501 10.1456 25.5432 10.8628 25.6065C11.5799 25.6698 12.1704 25.712 12.5923 25.712C13.0141 25.712 13.6047 25.6909 14.3219 25.6065C15.039 25.5432 15.5453 25.501 15.8406 25.501V17.8655C15.5453 17.8655 15.039 17.8444 14.3219 17.76C13.6047 17.6967 13.0141 17.6545 12.5923 17.6545C12.1704 17.6545 11.5799 17.6967 10.8628 17.76C10.1456 17.8233 9.63933 17.8655 9.34403 17.8655V25.501ZM15.8617 39.148V27.5048C15.1446 27.6314 14.0477 27.7158 12.6134 27.7158C11.1791 27.7158 10.0823 27.6525 9.36515 27.5048V39.148C10.0823 39.2745 11.1791 39.3589 12.6134 39.3589C14.0477 39.3589 15.1446 39.2956 15.8617 39.148ZM9.34403 52.7949V64.4381C10.0612 64.3115 11.158 64.2483 12.5923 64.2483C14.0266 64.2483 15.1235 64.3115 15.8406 64.4381V52.7949C15.1235 52.6684 14.0266 52.6051 12.5923 52.6051C11.158 52.6051 10.0612 52.6684 9.34403 52.7949ZM9.34403 74.0774C9.63933 74.0774 10.1456 74.1196 10.8628 74.1829C11.5799 74.2462 12.1704 74.2884 12.5923 74.2884C13.0141 74.2884 13.6047 74.2673 14.3219 74.1829C15.039 74.1196 15.5453 74.0774 15.8406 74.0774V66.4419C15.5453 66.4419 15.039 66.4208 14.3219 66.3364C13.6047 66.2731 13.0141 66.2309 12.5923 66.2309C12.1704 66.2309 11.5799 66.2731 10.8628 66.3364C10.1456 66.3997 9.63933 66.4419 9.34403 66.4419V74.0774ZM15.8617 87.7244V76.0813C15.1446 76.2078 14.0477 76.2922 12.6134 76.2922C11.1791 76.2922 10.0823 76.2289 9.36515 76.0813V87.7244C10.0823 87.8509 11.1791 87.9353 12.6134 87.9353C14.0477 87.9353 15.1446 87.872 15.8617 87.7244ZM9.34403 101.371V113.014C10.0612 112.888 11.158 112.825 12.5923 112.825C14.0266 112.825 15.1235 112.888 15.8406 113.014V101.371C15.1235 101.245 14.0266 101.182 12.5923 101.182C11.158 101.182 10.0612 101.245 9.34403 101.371ZM9.34403 122.654C9.63933 122.654 10.1456 122.696 10.8628 122.759C11.5799 122.823 12.1704 122.865 12.5923 122.865C13.0141 122.865 13.6047 122.844 14.3219 122.759C15.039 122.696 15.5453 122.654 15.8406 122.654V115.018C15.5453 115.018 15.039 114.997 14.3219 114.913C13.6047 114.85 13.0141 114.807 12.5923 114.807C12.1704 114.807 11.5799 114.85 10.8628 114.913C10.1456 114.976 9.63933 115.018 9.34403 115.018V122.654ZM15.8617 136.322V124.679C15.1446 124.805 14.0477 124.89 12.6134 124.89C11.1791 124.89 10.0823 124.826 9.36515 124.679V136.322C10.0823 136.448 11.1791 136.512 12.6134 136.512C14.0477 136.512 15.1446 136.448 15.8617 136.322Z" fill="var(--fill-0, #23542E)"/>
<path id="Vector_2" d="M34.1068 4.21856C34.1068 1.41323 38.3043 2.50327e-05 46.6992 2.50327e-05C55.0941 2.50327e-05 59.3126 1.41323 59.3126 4.21856C59.3126 6.49657 57.4986 8.50037 53.8706 10.2511V16.8742C57.4986 17.9499 59.3126 19.5529 59.3126 21.7044C59.3126 23.8558 57.4986 25.4589 53.8706 26.5135V33.1366C57.4986 34.8873 59.3126 36.8911 59.3126 39.1691C59.3126 41.9744 55.1152 43.3876 46.6992 43.3876C38.2832 43.3876 34.1068 41.9744 34.1068 39.1691C34.1068 36.8911 35.9208 34.8873 39.5277 33.1366V26.5135C35.8997 25.4378 34.1068 23.8347 34.1068 21.7044C34.1068 19.574 35.9208 17.9499 39.5277 16.8742V10.2511C35.8997 8.52146 34.1068 6.49657 34.1068 4.21856ZM34.1068 52.816C34.1068 50.0107 38.3043 48.5975 46.6992 48.5975C55.0941 48.5975 59.3126 50.0107 59.3126 52.816C59.3126 55.094 57.4986 57.0979 53.8706 58.8485V65.4716C57.4986 66.5474 59.3126 68.1504 59.3126 70.3019C59.3126 72.4533 57.4986 74.0564 53.8706 75.111V81.7341C57.4986 83.4848 59.3126 85.4886 59.3126 87.7666C59.3126 90.5719 55.1152 91.9851 46.6992 91.9851C38.2832 91.9851 34.1068 90.5719 34.1068 87.7666C34.1068 85.4886 35.9208 83.4848 39.5277 81.7341V75.111C35.8997 74.0353 34.1068 72.4322 34.1068 70.3019C34.1068 68.1715 35.9208 66.5474 39.5277 65.4716V58.8485C35.8997 57.1189 34.1068 55.094 34.1068 52.816ZM34.1068 101.414C34.1068 98.6082 38.3043 97.195 46.6992 97.195C55.0941 97.195 59.3126 98.6082 59.3126 101.414C59.3126 103.692 57.4986 105.695 53.8706 107.446V114.069C57.4986 115.145 59.3126 116.748 59.3126 118.899C59.3126 121.051 57.4986 122.654 53.8706 123.708V130.332C57.4986 132.061 59.3126 134.086 59.3126 136.364C59.3126 139.169 55.1152 140.583 46.6992 140.583C38.2832 140.583 34.1068 139.169 34.1068 136.364C34.1068 134.086 35.9208 132.082 39.5277 130.332V123.708C35.8997 122.633 34.1068 121.03 34.1068 118.899C34.1068 116.769 35.9208 115.145 39.5277 114.069V107.446C35.8997 105.716 34.1068 103.692 34.1068 101.414ZM43.4509 4.21856V15.8617C44.168 15.7352 45.2649 15.6719 46.6992 15.6719C48.1335 15.6719 49.2303 15.7352 49.9685 15.8617V4.21856C49.2303 4.092 48.1546 4.00762 46.6992 4.00762C45.2438 4.00762 44.168 4.07091 43.4509 4.21856ZM43.4509 25.501C43.8938 25.501 44.4633 25.5432 45.1805 25.6065C45.8976 25.6698 46.4039 25.712 46.6992 25.712C46.9945 25.712 47.5007 25.6909 48.2178 25.6065C48.935 25.5432 49.5256 25.501 49.9474 25.501V17.8655C49.5045 17.8655 48.935 17.8444 48.2178 17.76C47.5007 17.6968 46.9945 17.6546 46.6992 17.6546C46.4039 17.6546 45.8976 17.6968 45.1805 17.76C44.4633 17.8233 43.8727 17.8655 43.4509 17.8655V25.501ZM49.9685 39.148V27.5048C49.2303 27.6314 48.1546 27.7158 46.6992 27.7158C45.2438 27.7158 44.168 27.6525 43.4509 27.5048V39.148C44.168 39.2746 45.2649 39.3589 46.6992 39.3589C48.1335 39.3589 49.2303 39.2957 49.9685 39.148ZM43.4509 52.795V64.4381C44.168 64.3116 45.2649 64.2483 46.6992 64.2483C48.1335 64.2483 49.2303 64.3116 49.9685 64.4381V52.795C49.2303 52.6684 48.1546 52.6051 46.6992 52.6051C45.2438 52.6051 44.168 52.6684 43.4509 52.795ZM43.4509 74.0774C43.8938 74.0774 44.4633 74.1196 45.1805 74.1829C45.8976 74.2462 46.4039 74.2884 46.6992 74.2884C46.9945 74.2884 47.5007 74.2673 48.2178 74.1829C48.935 74.1196 49.5256 74.0774 49.9474 74.0774V66.4419C49.5045 66.4419 48.935 66.4208 48.2178 66.3364C47.5007 66.2732 46.9945 66.231 46.6992 66.231C46.4039 66.231 45.8976 66.2732 45.1805 66.3364C44.4633 66.3997 43.8727 66.4419 43.4509 66.4419V74.0774ZM49.9685 87.7244V76.0813C49.2303 76.2078 48.1546 76.2922 46.6992 76.2922C45.2438 76.2922 44.168 76.2289 43.4509 76.0813V87.7244C44.168 87.851 45.2649 87.9353 46.6992 87.9353C48.1335 87.9353 49.2303 87.8721 49.9685 87.7244ZM43.4509 101.371V113.014C44.168 112.888 45.2649 112.825 46.6992 112.825C48.1335 112.825 49.2303 112.888 49.9685 113.014V101.371C49.2303 101.245 48.1546 101.182 46.6992 101.182C45.2438 101.182 44.168 101.245 43.4509 101.371ZM43.4509 122.654C43.8938 122.654 44.4633 122.696 45.1805 122.759C45.8976 122.823 46.4039 122.865 46.6992 122.865C46.9945 122.865 47.5007 122.844 48.2178 122.759C48.935 122.696 49.5256 122.654 49.9474 122.654V115.018C49.5045 115.018 48.935 114.997 48.2178 114.913C47.5007 114.85 46.9945 114.807 46.6992 114.807C46.4039 114.807 45.8976 114.85 45.1805 114.913C44.4633 114.976 43.8727 115.018 43.4509 115.018V122.654ZM49.9685 136.322V124.679C49.2303 124.805 48.1546 124.89 46.6992 124.89C45.2438 124.89 44.168 124.826 43.4509 124.679V136.322C44.168 136.448 45.2649 136.512 46.6992 136.512C48.1335 136.512 49.2303 136.448 49.9685 136.322Z" fill="var(--fill-0, #B60303)"/>
<path id="Vector_3" d="M68.2139 4.21856C68.2139 1.41323 72.4113 2.50327e-05 80.8061 2.50327e-05C89.201 2.50327e-05 93.3985 1.41323 93.3985 4.21856C93.3985 6.49657 91.5845 8.50037 87.9566 10.2511V16.8742C91.5845 17.9499 93.3985 19.5529 93.3985 21.7044C93.3985 23.8558 91.5845 25.4589 87.9566 26.5135V33.1366C91.5845 34.8873 93.3985 36.8911 93.3985 39.1691C93.3985 41.9744 89.201 43.3876 80.8061 43.3876C72.4113 43.3876 68.2139 41.9744 68.2139 39.1691C68.2139 36.8911 70.0277 34.8873 73.6346 33.1366V26.5135C70.0066 25.4378 68.2139 23.8347 68.2139 21.7044C68.2139 19.574 70.0277 17.9499 73.6346 16.8742V10.2511C70.0066 8.52146 68.2139 6.49657 68.2139 4.21856ZM68.2139 52.816C68.2139 50.0107 72.4113 48.5975 80.8061 48.5975C89.201 48.5975 93.3985 50.0107 93.3985 52.816C93.3985 55.094 91.5845 57.0979 87.9566 58.8485V65.4716C91.5845 66.5474 93.3985 68.1504 93.3985 70.3019C93.3985 72.4533 91.5845 74.0564 87.9566 75.111V81.7341C91.5845 83.4848 93.3985 85.4886 93.3985 87.7666C93.3985 90.5719 89.201 91.9851 80.8061 91.9851C72.4113 91.9851 68.2139 90.5719 68.2139 87.7666C68.2139 85.4886 70.0277 83.4848 73.6346 81.7341V75.111C70.0066 74.0353 68.2139 72.4322 68.2139 70.3019C68.2139 68.1715 70.0277 66.5474 73.6346 65.4716V58.8485C70.0066 57.1189 68.2139 55.094 68.2139 52.816ZM68.2139 101.414C68.2139 98.6082 72.4113 97.195 80.8061 97.195C89.201 97.195 93.3985 98.6082 93.3985 101.414C93.3985 103.692 91.5845 105.695 87.9566 107.446V114.069C91.5845 115.145 93.3985 116.748 93.3985 118.899C93.3985 121.051 91.5845 122.654 87.9566 123.708V130.332C91.5845 132.061 93.3985 134.086 93.3985 136.364C93.3985 139.169 89.201 140.583 80.8061 140.583C72.4113 140.583 68.2139 139.169 68.2139 136.364C68.2139 134.086 70.0277 132.082 73.6346 130.332V123.708C70.0066 122.633 68.2139 121.03 68.2139 118.899C68.2139 116.769 70.0277 115.145 73.6346 114.069V107.446C70.0066 105.716 68.2139 103.692 68.2139 101.414ZM77.5579 4.21856V15.8617C78.2751 15.7352 79.3718 15.6719 80.8061 15.6719C82.2404 15.6719 83.3372 15.7352 84.0544 15.8617V4.21856C83.3372 4.092 82.2404 4.00762 80.8061 4.00762C79.3718 4.00762 78.2751 4.07091 77.5579 4.21856ZM77.5579 25.501C77.8532 25.501 78.3594 25.5432 79.0765 25.6065C79.7937 25.6698 80.3843 25.712 80.8061 25.712C81.228 25.712 81.8186 25.6909 82.5358 25.6065C83.2529 25.5432 83.7591 25.501 84.0544 25.501V17.8655C83.7591 17.8655 83.2529 17.8444 82.5358 17.76C81.8186 17.6968 81.228 17.6546 80.8061 17.6546C80.3843 17.6546 79.7937 17.6968 79.0765 17.76C78.3594 17.8233 77.8532 17.8655 77.5579 17.8655V25.501ZM84.0755 39.148V27.5048C83.3583 27.6314 82.2616 27.7158 80.8273 27.7158C79.393 27.7158 78.2962 27.6525 77.579 27.5048V39.148C78.2962 39.2746 79.393 39.3589 80.8273 39.3589C82.2616 39.3589 83.3583 39.2957 84.0755 39.148ZM77.5579 52.795V64.4381C78.2751 64.3116 79.3718 64.2483 80.8061 64.2483C82.2404 64.2483 83.3372 64.3116 84.0544 64.4381V52.795C83.3372 52.6684 82.2404 52.6051 80.8061 52.6051C79.3718 52.6051 78.2751 52.6684 77.5579 52.795ZM77.5579 74.0774C77.8532 74.0774 78.3594 74.1196 79.0765 74.1829C79.7937 74.2462 80.3843 74.2884 80.8061 74.2884C81.228 74.2884 81.8186 74.2673 82.5358 74.1829C83.2529 74.1196 83.7591 74.0774 84.0544 74.0774V66.4419C83.7591 66.4419 83.2529 66.4208 82.5358 66.3364C81.8186 66.2732 81.228 66.231 80.8061 66.231C80.3843 66.231 79.7937 66.2732 79.0765 66.3364C78.3594 66.3997 77.8532 66.4419 77.5579 66.4419V74.0774ZM84.0755 87.7244V76.0813C83.3583 76.2078 82.2616 76.2922 80.8273 76.2922C79.393 76.2922 78.2962 76.2289 77.579 76.0813V87.7244C78.2962 87.851 79.393 87.9353 80.8273 87.9353C82.2616 87.9353 83.3583 87.8721 84.0755 87.7244ZM77.5579 101.371V113.014C78.2751 112.888 79.3718 112.825 80.8061 112.825C82.2404 112.825 83.3372 112.888 84.0544 113.014V101.371C83.3372 101.245 82.2404 101.182 80.8061 101.182C79.3718 101.182 78.2751 101.245 77.5579 101.371ZM77.5579 122.654C77.8532 122.654 78.3594 122.696 79.0765 122.759C79.7937 122.823 80.3843 122.865 80.8061 122.865C81.228 122.865 81.8186 122.844 82.5358 122.759C83.2529 122.696 83.7591 122.654 84.0544 122.654V115.018C83.7591 115.018 83.2529 114.997 82.5358 114.913C81.8186 114.85 81.228 114.807 80.8061 114.807C80.3843 114.807 79.7937 114.85 79.0765 114.913C78.3594 114.976 77.8532 115.018 77.5579 115.018V122.654ZM84.0755 136.322V124.679C83.3583 124.805 82.2616 124.89 80.8273 124.89C79.393 124.89 78.2962 124.826 77.579 124.679V136.322C78.2962 136.448 79.393 136.512 80.8273 136.512C82.2616 136.512 83.3583 136.448 84.0755 136.322Z" fill="var(--fill-0, #23542E)"/>
</g>
</svg>
