<svg preserveAspectRatio="none" width="100%" height="100%" overflow="visible" style="display: block;" viewBox="0 0 44 44" fill="none" xmlns="http://www.w3.org/2000/svg">
<g id="AI_printing">
<path id="Union" d="M10.7774 26.0323C15.1689 24.1295 21.5044 29.9973 16.4718 35.6846C14.1624 38.2942 8.97899 39.729 5.63583 36.8389C2.92702 34.4972 4.45567 34.6863 5.63583 32.5596C6.69338 30.6538 7.48433 27.4595 10.7774 26.0323ZM34.2833 29.4044C34.6071 29.1651 35.0493 29.165 35.3731 29.4044C35.593 29.5669 35.7613 30.0216 36.0977 30.9307C36.1661 31.1154 36.1999 31.2081 36.2501 31.2882C36.3236 31.4054 36.4228 31.5047 36.5401 31.5782C36.6202 31.6284 36.7128 31.6622 36.8975 31.7305C37.8066 32.0669 38.2613 32.2353 38.4239 32.4551C38.6633 32.7789 38.6632 33.2212 38.4239 33.545C38.2614 33.7649 37.8067 33.9332 36.8975 34.2696C36.7128 34.3379 36.6202 34.3727 36.5401 34.4229C36.423 34.4964 36.3235 34.5949 36.2501 34.712C36.1999 34.792 36.1661 34.8848 36.0977 35.0694C35.7614 35.9785 35.593 36.4331 35.3731 36.5958C35.0493 36.8352 34.6071 36.8352 34.2833 36.5958C34.0634 36.4332 33.8951 35.9786 33.5587 35.0694C33.4903 34.8847 33.4565 34.792 33.4063 34.712C33.3329 34.5949 33.2334 34.4964 33.1163 34.4229C33.0362 34.3727 32.9436 34.3379 32.7589 34.2696C31.8496 33.9331 31.3951 33.7649 31.2325 33.545C30.9932 33.2212 30.9931 32.779 31.2325 32.4551C31.3952 32.2353 31.8498 32.0669 32.7589 31.7305C32.9435 31.6622 33.0362 31.6284 33.1163 31.5782C33.2335 31.5047 33.3329 31.4054 33.4063 31.2882C33.4565 31.2081 33.4904 31.1153 33.5587 30.9307C33.8951 30.0216 34.0634 29.5669 34.2833 29.4044ZM31.6759 5.93561C33.4525 4.27097 36.2295 4.31593 37.9513 6.03718C39.6724 7.75865 39.718 10.5351 38.0538 12.3116L21.9483 29.501C21.8195 28.0701 21.3272 26.7445 20.5616 25.6182L20.5675 25.6114C19.9805 24.7505 19.2359 24.0062 18.3741 23.421L18.3702 23.4258C17.2453 22.6602 15.9216 22.1664 14.4923 22.0362L31.6759 5.93561ZM35.3595 8.62995C35.0368 8.30736 34.5156 8.29848 34.1827 8.61042L21.0968 20.8702C21.8486 21.46 22.5276 22.1378 23.1183 22.8887L35.378 9.80573C35.6896 9.47313 35.6814 8.95244 35.3595 8.62995ZM8.73251 3.66511C9.00065 3.52327 9.32179 3.52327 9.58993 3.66511C9.89943 3.82891 10.1123 4.40269 10.5372 5.55085L10.9083 6.55378C10.9943 6.7862 11.0371 6.90263 11.1056 7.00007C11.1663 7.08645 11.2418 7.16196 11.3282 7.22272C11.4256 7.29122 11.5421 7.33399 11.7745 7.41999L12.7774 7.79108C13.9257 8.21598 14.5004 8.4288 14.6641 8.73835C14.8058 9.00643 14.8059 9.32773 14.6641 9.59577C14.5004 9.90529 13.9256 10.1172 12.7774 10.5421L11.7745 10.9132C11.5419 10.9992 11.4257 11.0428 11.3282 11.1114C11.2419 11.1721 11.1663 11.2468 11.1056 11.3331C11.037 11.4306 10.9944 11.5477 10.9083 11.7803L10.5372 12.7833C10.1124 13.9314 9.89946 14.5053 9.58993 14.669C9.32181 14.8108 9.00062 14.8108 8.73251 14.669C8.42314 14.5051 8.21089 13.9309 7.78622 12.7833L7.41513 11.7803C7.32904 11.5477 7.28546 11.4306 7.21688 11.3331C7.15627 11.247 7.08127 11.172 6.9952 11.1114C6.89772 11.0428 6.78058 10.9992 6.54794 10.9132L5.54501 10.5421C4.39735 10.1174 3.82317 9.90514 3.65927 9.59577C3.51744 9.32766 3.51748 9.00647 3.65927 8.73835C3.823 8.42882 4.39692 8.21592 5.54501 7.79108L6.54794 7.41999C6.78058 7.3339 6.89772 7.2913 6.9952 7.22272C7.08148 7.162 7.15618 7.08635 7.21688 7.00007C7.28546 6.90258 7.32904 6.78642 7.41513 6.55378L7.78622 5.55085C8.2109 4.40316 8.42321 3.82917 8.73251 3.66511Z" fill="url(#paint0_linear_0_6)"/>
</g>
<defs>
<linearGradient id="paint0_linear_0_6" x1="21.4127" y1="3.55866" x2="21.4127" y2="38.4337" gradientUnits="userSpaceOnUse">
<stop stop-color="#464646"/>
<stop offset="1" stop-color="#ACACAC"/>
</linearGradient>
</defs>
</svg>
