<svg preserveAspectRatio="none" width="100%" height="100%" overflow="visible" style="display: block;" viewBox="0 0 24 24" fill="none" xmlns="http://www.w3.org/2000/svg">
<g id="email">
<path id="Union" d="M20 10.4004C20 9.24729 19.9984 8.50222 19.9521 7.93555C19.9077 7.39232 19.8326 7.19068 19.7822 7.0918C19.5905 6.71555 19.2844 6.40951 18.9082 6.21777C18.8093 6.16739 18.6077 6.09225 18.0644 6.04785C17.4978 6.00155 16.7527 6 15.5996 6H8.40038C7.24727 6 6.50221 6.00155 5.93553 6.04785C5.3923 6.09225 5.19066 6.16739 5.09178 6.21777C4.71553 6.40951 4.4095 6.71555 4.21776 7.0918C4.16738 7.19068 4.09223 7.39232 4.04784 7.93555C4.00154 8.50222 3.99999 9.24728 3.99999 10.4004V13.5996C3.99999 14.7527 4.00154 15.4978 4.04784 16.0645C4.09223 16.6077 4.16738 16.8093 4.21776 16.9082C4.4095 17.2845 4.71553 17.5905 5.09178 17.7822C5.19066 17.8326 5.3923 17.9078 5.93553 17.9521C6.50221 17.9984 7.24727 18 8.40038 18H15.5996C16.7527 18 17.4978 17.9984 18.0644 17.9521C18.6077 17.9078 18.8093 17.8326 18.9082 17.7822C19.2844 17.5905 19.5905 17.2845 19.7822 16.9082C19.8326 16.8093 19.9077 16.6077 19.9521 16.0645C19.9984 15.4978 20 14.7527 20 13.5996V10.4004ZM6.14257 9.48535C6.42675 9.01189 7.0411 8.85847 7.51464 9.14258L11.4853 11.5254C11.802 11.7154 12.198 11.7154 12.5146 11.5254L16.4853 9.14258C16.9589 8.85846 17.5732 9.01189 17.8574 9.48535C18.1415 9.95889 17.9881 10.5732 17.5146 10.8574L13.5439 13.2402C12.5939 13.8103 11.4061 13.8103 10.456 13.2402L6.48534 10.8574C6.01188 10.5732 5.85845 9.95888 6.14257 9.48535ZM22 13.5996L21.9932 15.084C21.9744 16.2757 21.9041 17.0391 21.6406 17.6523L21.5644 17.8164C21.2289 18.4749 20.7183 19.0259 20.0918 19.4102L19.8164 19.5645C18.9607 20.0004 17.8398 20 15.5996 20H8.40038C6.16017 20 5.03923 20.0004 4.18358 19.5645C3.43108 19.181 2.819 18.5689 2.43553 17.8164C2.10859 17.1748 2.02727 16.3839 2.00682 15.084L1.99999 13.5996V10.4004C1.99999 8.16018 1.99956 7.03924 2.43553 6.18359C2.819 5.43109 3.43108 4.81902 4.18358 4.43555C5.03923 3.99957 6.16017 4 8.40038 4H15.5996L17.084 4.00684C18.3839 4.02729 19.1747 4.10861 19.8164 4.43555L20.0918 4.58984C20.7183 4.97413 21.2289 5.52512 21.5644 6.18359L21.6406 6.34766C21.9999 7.18397 22 8.30006 22 10.4004V13.5996Z" fill="black"/>
</g>
</svg>
