<svg preserveAspectRatio="none" width="100%" height="100%" overflow="visible" style="display: block;" viewBox="0 0 24 24" fill="none" xmlns="http://www.w3.org/2000/svg">
<g id="Phone">
<path id="Shape" fill-rule="evenodd" clip-rule="evenodd" d="M3.16417 6.6849C3.36993 5.49153 4.05153 4.53425 4.78571 3.80008C5.95876 2.62705 7.89917 2.76648 8.89247 4.09516L10.5139 6.26412C11.4068 7.45846 11.2869 9.1273 10.2325 10.1817L10.1213 10.2929C9.73079 10.6834 9.73079 11.3166 10.1213 11.7071L12.2929 13.8787C12.6834 14.2692 13.3166 14.2692 13.7071 13.8787L13.8183 13.7675C14.8727 12.7131 16.5415 12.5932 17.7359 13.486L19.9212 15.1197C21.2413 16.1066 21.3798 18.0344 20.2143 19.1999C19.472 19.9422 18.5042 20.6349 17.2962 20.8435C15.0721 21.2275 10.8093 21.2235 6.79288 17.2071C2.77461 13.1888 2.78164 8.90348 3.16417 6.6849ZM6.19991 5.21431C5.62378 5.79042 5.24418 6.39201 5.13509 7.02473C4.8266 8.81387 4.78132 12.3671 8.2071 15.7929C11.6345 19.2203 15.1679 19.1814 16.9559 18.8726C17.6008 18.7613 18.2128 18.3729 18.8001 17.7857C19.104 17.4817 19.0679 16.9789 18.7236 16.7216L16.5383 15.0879C16.1402 14.7903 15.584 14.8302 15.2325 15.1817L15.1213 15.2929C13.9497 16.4645 12.0502 16.4645 10.8787 15.2929L8.7071 13.1213C7.53553 11.9497 7.53552 10.0502 8.7071 8.87867L8.81826 8.76751C9.16974 8.41603 9.20971 7.85975 8.91209 7.46164L7.29061 5.29268C7.0268 4.9398 6.51145 4.90277 6.19991 5.21431Z" fill="black"/>
</g>
</svg>
